<svg version="1.1" xmlns="http://www.w3.org/2000/svg" viewBox="0 0 2636.0784946237322 1179.0811252232133" width="2636.0784946237322" height="1179.0811252232133">
  <!-- svg-source:excalidraw -->
  
  <defs>
    <style class="style-fonts">
      @font-face {
        font-family: "Virgil";
        src: url("https://excalidraw.com/Virgil.woff2");
      }
      @font-face {
        font-family: "Cascadia";
        src: url("https://excalidraw.com/Cascadia.woff2");
      }
    </style>
  </defs>
  <rect x="0" y="0" width="2636.0784946237322" height="1179.0811252232133" fill="#ffffff"></rect><g stroke-linecap="round" transform="translate(737.3428977634248 540.1061094681647) rotate(0 42.28578186035156 37.142822265625)"><path d="M51.3 0.9 C58.42 2.17, 67.1 7.47, 72.55 12.24 C78 17.01, 82.44 23.16, 84 29.53 C85.55 35.9, 84.71 44.07, 81.88 50.45 C79.04 56.83, 73.38 63.95, 67.01 67.79 C60.63 71.63, 51.3 73.08, 43.64 73.47 C35.98 73.86, 27.6 73.42, 21.03 70.14 C14.47 66.87, 7.61 59.96, 4.25 53.83 C0.9 47.7, 0.19 39.87, 0.9 33.36 C1.61 26.86, 3.8 20.15, 8.51 14.8 C13.22 9.46, 20.82 3.24, 29.14 1.3 C37.46 -0.64, 52.34 2.12, 58.44 3.16 C64.53 4.21, 65.86 7, 65.69 7.57 M50.07 0.44 C57.05 0.63, 64.12 3.93, 69.52 8.2 C74.92 12.47, 80.34 19.43, 82.48 26.03 C84.62 32.63, 84.77 41.22, 82.36 47.8 C79.95 54.38, 73.97 61.31, 68.01 65.5 C62.04 69.69, 54.06 72.34, 46.55 72.95 C39.05 73.55, 29.61 71.69, 22.98 69.15 C16.36 66.62, 10.53 63.24, 6.81 57.73 C3.09 52.23, 0.56 42.95, 0.65 36.15 C0.73 29.34, 3.07 22.4, 7.31 16.88 C11.56 11.36, 18.92 5.86, 26.12 3.01 C33.32 0.16, 46.82 0.2, 50.5 -0.22 C54.18 -0.64, 48.46 -0.12, 48.19 0.48" stroke="#2b8a3e" stroke-width="1" fill="none"></path></g><g transform="translate(836.6286033298311 520.1061094681647) rotate(0 40 12.5)"><text x="0" y="18" font-family="Virgil, Segoe UI Emoji" font-size="20px" fill="#364fc7" text-anchor="start" style="white-space: pre;" direction="ltr">:Station</text></g><g transform="translate(837.2001365329561 544.677459565821) rotate(0 85 30.5)"><text x="0" y="14.333333333333332" font-family="Virgil, Segoe UI Emoji" font-size="16px" fill="#2b8a3e" text-anchor="start" style="white-space: pre;" direction="ltr">name: Kobylisy</text><text x="0" y="34.666666666666664" font-family="Virgil, Segoe UI Emoji" font-size="16px" fill="#2b8a3e" text-anchor="start" style="white-space: pre;" direction="ltr">latitude: 50.1246845</text><text x="0" y="55" font-family="Virgil, Segoe UI Emoji" font-size="16px" fill="#2b8a3e" text-anchor="start" style="white-space: pre;" direction="ltr">longitude: 14.4555912</text></g><g transform="translate(1083.5461653188552 694.1968773408973) rotate(0 74 20.5)"><text x="0" y="13.5" font-family="Virgil, Segoe UI Emoji" font-size="16px" fill="#2b8a3e" text-anchor="start" style="white-space: pre;" direction="ltr">order : 0</text><text x="0" y="34" font-family="Virgil, Segoe UI Emoji" font-size="16px" fill="#2b8a3e" text-anchor="start" style="white-space: pre;" direction="ltr">minutesToNext : 3</text></g><g stroke-linecap="round" transform="translate(1029.3430503513155 528.4631956498054) rotate(0 42.28578186035162 37.142822265625)"><path d="M54.81 1.65 C61.97 2.87, 69.88 7.77, 74.83 12.87 C79.77 17.97, 83.48 25.37, 84.5 32.27 C85.51 39.16, 84.42 48.3, 80.92 54.24 C77.42 60.19, 70.07 64.59, 63.49 67.97 C56.91 71.34, 49 74.59, 41.45 74.52 C33.9 74.44, 24.62 71.15, 18.19 67.52 C11.76 63.89, 5.89 58.91, 2.88 52.75 C-0.14 46.59, -1.13 37.46, 0.11 30.54 C1.34 23.62, 5.09 15.97, 10.3 11.24 C15.52 6.5, 23.32 3.41, 31.38 2.15 C39.44 0.88, 53.92 3.43, 58.67 3.65 C63.42 3.88, 60.21 3.16, 59.88 3.49 M51.97 0.5 C59.13 1.17, 68.11 6.22, 73.57 11.15 C79.03 16.08, 83.27 23.47, 84.74 30.08 C86.22 36.69, 85.47 44.54, 82.41 50.82 C79.36 57.1, 72.84 63.71, 66.42 67.77 C60 71.83, 51.57 75.02, 43.9 75.18 C36.24 75.34, 26.86 72.06, 20.43 68.71 C14 65.37, 8.92 60.96, 5.35 55.1 C1.77 49.24, -1.39 40.21, -0.99 33.56 C-0.6 26.91, 3.08 20.31, 7.72 15.19 C12.35 10.06, 19.41 5.19, 26.82 2.81 C34.22 0.43, 48.18 1.08, 52.16 0.9 C56.13 0.73, 50.81 1.13, 50.65 1.78" stroke="#2b8a3e" stroke-width="1" fill="none"></path></g><g transform="translate(1132.7717002536592 515.4632261673835) rotate(0 40 12.5)"><text x="0" y="18" font-family="Virgil, Segoe UI Emoji" font-size="20px" fill="#364fc7" text-anchor="start" style="white-space: pre;" direction="ltr">:Station</text></g><g transform="translate(1132.2002891208465 541.4630735794929) rotate(0 83.5 30.5)"><text x="0" y="14.333333333333332" font-family="Virgil, Segoe UI Emoji" font-size="16px" fill="#2b8a3e" text-anchor="start" style="white-space: pre;" direction="ltr">name: Českomoravská</text><text x="0" y="34.666666666666664" font-family="Virgil, Segoe UI Emoji" font-size="16px" fill="#2b8a3e" text-anchor="start" style="white-space: pre;" direction="ltr">latitude: 50.1061</text><text x="0" y="55" font-family="Virgil, Segoe UI Emoji" font-size="16px" fill="#2b8a3e" text-anchor="start" style="white-space: pre;" direction="ltr">longitude: 14.149225</text></g><g transform="translate(790.9292296750928 697.6664554519316) rotate(0 71 20.5)"><text x="0" y="13.5" font-family="Virgil, Segoe UI Emoji" font-size="16px" fill="#2b8a3e" text-anchor="start" style="white-space: pre;" direction="ltr">order : 8</text><text x="0" y="34" font-family="Virgil, Segoe UI Emoji" font-size="16px" fill="#2b8a3e" text-anchor="start" style="white-space: pre;" direction="ltr">minutesToNext : 1</text></g><g stroke-linecap="round" transform="translate(566.6178098992996 839.5065217350806) rotate(0 52.28570556640625 47.714324951171875)"><path d="M45.59 -0.12 C53.9 -1.79, 64.65 0.82, 72.79 3.86 C80.93 6.89, 89.18 11.65, 94.45 18.1 C99.71 24.56, 103.35 34.72, 104.36 42.56 C105.38 50.41, 103.96 57.83, 100.52 65.18 C97.08 72.52, 90.6 81.63, 83.74 86.61 C76.89 91.59, 68 94.38, 59.4 95.07 C50.79 95.76, 40.35 93.66, 32.11 90.75 C23.86 87.84, 15.23 83.71, 9.94 77.61 C4.65 71.51, 1.24 62.18, 0.37 54.15 C-0.51 46.12, 1.22 36.71, 4.71 29.43 C8.2 22.15, 13.18 15.51, 21.31 10.47 C29.44 5.43, 46.96 0.62, 53.47 -0.82 C59.98 -2.25, 60.4 1.04, 60.35 1.86 M33.03 2.03 C40.63 -1.25, 52.15 -1.81, 61.17 -0.06 C70.19 1.69, 80.2 7.53, 87.13 12.52 C94.06 17.51, 99.95 22.86, 102.75 29.9 C105.54 36.94, 105.48 46.46, 103.89 54.76 C102.3 63.06, 98.88 73.5, 93.2 79.69 C87.53 85.87, 78.33 89.22, 69.83 91.87 C61.34 94.53, 50.68 97.05, 42.23 95.6 C33.79 94.14, 25.65 88.27, 19.18 83.17 C12.71 78.06, 6.53 72.4, 3.41 64.99 C0.28 57.59, -1.17 46.61, 0.44 38.75 C2.06 30.89, 7.53 23.87, 13.1 17.82 C18.66 11.77, 30.09 4.56, 33.86 2.45 C37.63 0.35, 35.6 4.53, 35.73 5.18" stroke="#2b8a3e" stroke-width="1" fill="none"></path></g><g transform="translate(677.5899285667763 864.8209442047091) rotate(0 57.5 12.5)"><text x="0" y="18" font-family="Virgil, Segoe UI Emoji" font-size="20px" fill="#364fc7" text-anchor="start" style="white-space: pre;" direction="ltr">:TrafficLine</text></g><g transform="translate(677.4471063011513 894.9635833648654) rotate(0 42.5 10)"><text x="0" y="14" font-family="Virgil, Segoe UI Emoji" font-size="16px" fill="#2b8a3e" text-anchor="start" style="white-space: pre;" direction="ltr">name : 152</text></g><g stroke-linecap="round"><g transform="translate(663.2533676829294 860.291323461818) rotate(0 206.0073417926759 -127.71076968976746)"><path d="M-0.08 -0.01 C61.47 -6.88, 300.04 2.37, 368.71 -40.2 C437.38 -82.77, 404.85 -219.91, 411.92 -255.41 M-1.59 -1.06 C59.89 -7.26, 299.02 3.26, 367.88 -39 C436.74 -81.27, 404.33 -218.63, 411.57 -254.65" stroke="#000000" stroke-width="1" fill="none"></path></g><g transform="translate(663.2533676829294 860.291323461818) rotate(0 206.0073417926759 -127.71076968976746)"><path d="M422.01 -226.17 C418.14 -232.13, 414.88 -240.45, 413.52 -253.17 M421.21 -226.17 C418.65 -236.29, 415.42 -244.73, 411.25 -255.04" stroke="#000000" stroke-width="1" fill="none"></path></g><g transform="translate(663.2533676829294 860.291323461818) rotate(0 206.0073417926759 -127.71076968976746)"><path d="M401.49 -226.03 C402.67 -232.01, 404.47 -240.36, 413.52 -253.17 M400.69 -226.02 C404.78 -236.28, 408.2 -244.77, 411.25 -255.04" stroke="#000000" stroke-width="1" fill="none"></path></g></g><mask></mask><g stroke-linecap="round"><g transform="translate(651.0549357312523 848.5166955061777) rotate(0 66.86128987784195 -116.41223259021587)"><path d="M-0.94 -0.52 C19.43 -11.73, 101.39 -29.16, 123 -68.18 C144.62 -107.2, 127.68 -207.15, 128.72 -234.65 M0.76 1.82 C20.99 -9.1, 100.85 -27.41, 122.56 -66.64 C144.27 -105.88, 129.93 -205.5, 131.03 -233.6" stroke="#000000" stroke-width="1" fill="none"></path></g><g transform="translate(651.0549357312523 848.5166955061777) rotate(0 66.86128987784195 -116.41223259021587)"><path d="M141.64 -204.28 C138.52 -217.98, 133.46 -227.29, 132.63 -235.07 M142.67 -205.83 C138.31 -216.55, 134.26 -225.79, 130.99 -234.44" stroke="#000000" stroke-width="1" fill="none"></path></g><g transform="translate(651.0549357312523 848.5166955061777) rotate(0 66.86128987784195 -116.41223259021587)"><path d="M121.14 -203.39 C125.53 -217.25, 127.97 -226.89, 132.63 -235.07 M122.17 -204.94 C125.5 -216, 129.14 -225.58, 130.99 -234.44" stroke="#000000" stroke-width="1" fill="none"></path></g></g><mask></mask><g stroke-linecap="round" transform="translate(396.22403324984606 538.831964493199) rotate(0 42.28578186035156 37.142822265625)"><path d="M56.12 2.55 C63.14 4.26, 71.26 8.69, 75.92 14.09 C80.57 19.5, 83.26 28.25, 84.03 34.97 C84.79 41.69, 84.09 48.61, 80.5 54.43 C76.9 60.25, 69.27 66.62, 62.43 69.9 C55.59 73.18, 46.87 74.49, 39.46 74.11 C32.05 73.74, 24.09 71.59, 17.96 67.66 C11.82 63.73, 5.59 56.74, 2.65 50.53 C-0.28 44.33, -1.28 37.15, 0.32 30.43 C1.92 23.71, 6.98 15.15, 12.26 10.19 C17.54 5.24, 23.57 1.62, 32.01 0.72 C40.45 -0.18, 56.83 3.52, 62.91 4.8 C68.99 6.08, 68.81 7.8, 68.5 8.38 M38.09 1.64 C45.55 0.3, 55.65 0.3, 62.39 2.86 C69.13 5.43, 74.91 10.84, 78.52 17.03 C82.13 23.22, 84.16 32.93, 84.03 40 C83.91 47.07, 81.94 54.15, 77.77 59.46 C73.61 64.77, 66.27 69.71, 59.04 71.86 C51.82 74.02, 41.85 73.52, 34.42 72.4 C26.99 71.28, 20.05 69.68, 14.47 65.15 C8.89 60.63, 3.15 51.97, 0.94 45.23 C-1.27 38.49, -1.41 31.12, 1.22 24.71 C3.86 18.29, 10.51 10.63, 16.75 6.72 C22.99 2.81, 34.87 2.02, 38.66 1.26 C42.46 0.51, 39.56 1.98, 39.51 2.19" stroke="#2b8a3e" stroke-width="1" fill="none"></path></g><g transform="translate(495.5097388162523 518.831964493199) rotate(0 40 12.5)"><text x="0" y="18" font-family="Virgil, Segoe UI Emoji" font-size="20px" fill="#364fc7" text-anchor="start" style="white-space: pre;" direction="ltr">:Station</text></g><g transform="translate(496.0812720193773 543.4033145908553) rotate(0 88.5 30.5)"><text x="0" y="14.333333333333332" font-family="Virgil, Segoe UI Emoji" font-size="16px" fill="#2b8a3e" text-anchor="start" style="white-space: pre;" direction="ltr">name: Podhajská pole</text><text x="0" y="34.666666666666664" font-family="Virgil, Segoe UI Emoji" font-size="16px" fill="#2b8a3e" text-anchor="start" style="white-space: pre;" direction="ltr">latitude: 50.1296653</text><text x="0" y="55" font-family="Virgil, Segoe UI Emoji" font-size="16px" fill="#2b8a3e" text-anchor="start" style="white-space: pre;" direction="ltr">longitude: 14.4305682</text></g><g transform="translate(461.2291219509346 698.0907004867536) rotate(0 71 20.5)"><text x="0" y="13.5" font-family="Virgil, Segoe UI Emoji" font-size="16px" fill="#2b8a3e" text-anchor="start" style="white-space: pre;" direction="ltr">order : 12</text><text x="0" y="34" font-family="Virgil, Segoe UI Emoji" font-size="16px" fill="#2b8a3e" text-anchor="start" style="white-space: pre;" direction="ltr">minutesToNext : 1</text></g><g stroke-linecap="round" transform="translate(76.448398484221 537.9135597777974) rotate(0 42.28578186035156 37.142822265625)"><path d="M55.4 1.46 C62.53 2.93, 70.6 8.61, 75.45 13.92 C80.3 19.23, 83.66 26.79, 84.5 33.33 C85.34 39.88, 84 47.24, 80.5 53.19 C77.01 59.14, 70.07 65.64, 63.52 69.03 C56.97 72.43, 48.95 73.86, 41.22 73.56 C33.5 73.26, 23.64 70.85, 17.18 67.24 C10.71 63.63, 5.1 57.92, 2.44 51.88 C-0.21 45.84, -0.25 37.77, 1.24 31 C2.74 24.22, 6.27 16.18, 11.41 11.22 C16.55 6.27, 24.16 2.83, 32.1 1.27 C40.05 -0.29, 54.41 1.37, 59.07 1.85 C63.72 2.33, 60.44 3.43, 60.05 4.16 M25.5 3.42 C31.72 -0.02, 40.43 -1.86, 47.6 -0.77 C54.77 0.32, 62.58 5.51, 68.52 9.95 C74.46 14.39, 80.67 19.58, 83.25 25.88 C85.84 32.17, 86.37 41.32, 84.06 47.73 C81.74 54.15, 75.31 60.19, 69.37 64.37 C63.43 68.54, 55.55 71.71, 48.43 72.77 C41.3 73.83, 33.37 73.25, 26.61 70.75 C19.85 68.24, 12.31 63.29, 7.84 57.75 C3.38 52.21, -0.17 44.37, -0.18 37.5 C-0.2 30.63, 3.84 22.44, 7.75 16.55 C11.66 10.65, 20.48 4.22, 23.26 2.14 C26.04 0.07, 24.22 3.49, 24.43 4.07" stroke="#2b8a3e" stroke-width="1" fill="none"></path></g><g transform="translate(175.73410405062725 517.9135597777974) rotate(0 40 12.5)"><text x="0" y="18" font-family="Virgil, Segoe UI Emoji" font-size="20px" fill="#364fc7" text-anchor="start" style="white-space: pre;" direction="ltr">:Station</text></g><g transform="translate(177.856601609221 539.6686518536903) rotate(0 88 30.5)"><text x="0" y="14.333333333333332" font-family="Virgil, Segoe UI Emoji" font-size="16px" fill="#2b8a3e" text-anchor="start" style="white-space: pre;" direction="ltr">name: Sídliště Čimice</text><text x="0" y="34.666666666666664" font-family="Virgil, Segoe UI Emoji" font-size="16px" fill="#2b8a3e" text-anchor="start" style="white-space: pre;" direction="ltr">latitude: 50.1447635</text><text x="0" y="55" font-family="Virgil, Segoe UI Emoji" font-size="16px" fill="#2b8a3e" text-anchor="start" style="white-space: pre;" direction="ltr">longitude: 14.4326209</text></g><g transform="translate(130.6011708199893 702.2679314319719) rotate(0 74 20.5)"><text x="0" y="13.5" font-family="Virgil, Segoe UI Emoji" font-size="16px" fill="#2b8a3e" text-anchor="start" style="white-space: pre;" direction="ltr">order : 17</text><text x="0" y="34" font-family="Virgil, Segoe UI Emoji" font-size="16px" fill="#2b8a3e" text-anchor="start" style="white-space: pre;" direction="ltr">minutesToNext : 0</text></g><g stroke-linecap="round"><g transform="translate(588.2213100973456 847.0898488356711) rotate(0 -75.85088046624412 -116.38471912811303)"><path d="M-0.27 -0.49 C-23.2 -13.55, -113.51 -40.26, -138.42 -78.89 C-163.33 -117.53, -147.91 -206.8, -149.7 -232.28 M1.79 -1.79 C-21.13 -15.18, -113.41 -42.68, -138.76 -80.85 C-164.11 -119.02, -148.7 -205.32, -150.32 -230.83" stroke="#000000" stroke-width="1" fill="none"></path></g><g transform="translate(588.2213100973456 847.0898488356711) rotate(0 -75.85088046624412 -116.38471912811303)"><path d="M-142.1 -200.3 C-142.76 -208.47, -144.97 -214.27, -149.06 -232.63 M-142.28 -201.5 C-144.27 -210.98, -147.56 -221.02, -150 -231.39" stroke="#000000" stroke-width="1" fill="none"></path></g><g transform="translate(588.2213100973456 847.0898488356711) rotate(0 -75.85088046624412 -116.38471912811303)"><path d="M-162.6 -201.19 C-158.46 -209.11, -155.87 -214.69, -149.06 -232.63 M-162.78 -202.39 C-158.04 -211.7, -154.61 -221.44, -150 -231.39" stroke="#000000" stroke-width="1" fill="none"></path></g></g><mask></mask><g stroke-linecap="round"><g transform="translate(579.835196875106 854.8134890346461) rotate(0 -231.59473536505774 -120.32569593889113)"><path d="M1.02 0.61 C-68.61 -8.36, -341.67 -13.63, -418.17 -53.94 C-494.66 -94.25, -451.15 -209.99, -457.94 -241.27 M0.1 -0.11 C-69.13 -9.46, -339.55 -15.91, -415.94 -55.95 C-492.32 -95.99, -451.1 -209.52, -458.21 -240.37" stroke="#000000" stroke-width="1" fill="none"></path></g><g transform="translate(579.835196875106 854.8134890346461) rotate(0 -231.59473536505774 -120.32569593889113)"><path d="M-448.27 -213.27 C-451.32 -217.83, -455.43 -227.12, -460.09 -240.62 M-449.46 -211.73 C-452.32 -220.32, -454.75 -230.88, -458.3 -240.15" stroke="#000000" stroke-width="1" fill="none"></path></g><g transform="translate(579.835196875106 854.8134890346461) rotate(0 -231.59473536505774 -120.32569593889113)"><path d="M-468.77 -214.24 C-466.29 -218.71, -464.88 -227.74, -460.09 -240.62 M-469.96 -212.7 C-466.1 -221.12, -461.8 -231.36, -458.3 -240.15" stroke="#000000" stroke-width="1" fill="none"></path></g></g><mask></mask><g transform="translate(431.6665421926674 102.68343031355903) rotate(0 111.99999999999997 25)"><text x="0" y="18" font-family="Virgil, Segoe UI Emoji" font-size="20px" fill="#000000" text-anchor="start" style="white-space: pre;" direction="ltr">Color convetions:</text><text x="0" y="43" font-family="Virgil, Segoe UI Emoji" font-size="20px" fill="#000000" text-anchor="start" style="white-space: pre;" direction="ltr">Edges and their labels</text></g><g transform="translate(430.85021877609375 159.5099858381127) rotate(0 142.5 12.5)"><text x="0" y="18" font-family="Virgil, Segoe UI Emoji" font-size="20px" fill="#2b8a3e" text-anchor="start" style="white-space: pre;" direction="ltr">Vertices and their properties</text></g><g transform="translate(430.21752834640625 188.32628745641614) rotate(0 91.5 12.5)"><text x="0" y="18" font-family="Virgil, Segoe UI Emoji" font-size="20px" fill="#364fc7" text-anchor="start" style="white-space: pre;" direction="ltr">Labels of vertices</text></g><g stroke-linecap="round" transform="translate(625.1322058572678 326.1559979579034) rotate(0 42.28578186035156 37.142822265625)"><path d="M29.94 0.81 C36.6 -1.39, 46.42 0.16, 53.88 2.07 C61.35 3.98, 69.6 7.34, 74.74 12.26 C79.88 17.17, 83.87 24.83, 84.72 31.56 C85.56 38.28, 83 46.51, 79.83 52.6 C76.67 58.69, 71.85 64.58, 65.72 68.07 C59.58 71.56, 50.87 73.42, 43.03 73.52 C35.19 73.63, 25.31 72.15, 18.7 68.7 C12.09 65.25, 6.51 58.99, 3.39 52.84 C0.26 46.7, -1.1 38.42, -0.04 31.83 C1.01 25.23, 3.42 18.42, 9.7 13.28 C15.97 8.14, 31.75 3, 37.61 0.99 C43.47 -1.02, 44.85 0.79, 44.86 1.21 M31.65 1.6 C38.18 -0.56, 47.4 0.56, 54.35 2.69 C61.31 4.82, 68.58 9.33, 73.37 14.37 C78.17 19.41, 81.89 26.35, 83.12 32.93 C84.35 39.51, 83.73 47.85, 80.74 53.86 C77.75 59.87, 71.57 65.6, 65.19 68.98 C58.8 72.37, 50.13 74.15, 42.43 74.18 C34.72 74.21, 25.18 72.9, 18.95 69.15 C12.71 65.4, 7.93 58.18, 5.02 51.69 C2.1 45.21, 0.69 36.7, 1.47 30.24 C2.26 23.79, 5.06 17.87, 9.74 12.96 C14.41 8.05, 26.17 2.82, 29.55 0.8 C32.92 -1.21, 29.76 0.43, 29.98 0.89" stroke="#2b8a3e" stroke-width="1" fill="none"></path></g><g transform="translate(723.6014354192098 329.82948602989) rotate(0 76 12.5)"><text x="0" y="18" font-family="Virgil, Segoe UI Emoji" font-size="20px" fill="#364fc7" text-anchor="start" style="white-space: pre;" direction="ltr">:TransportType</text></g><g transform="translate(724.1729686223348 354.40083612754626) rotate(0 58 10)"><text x="0" y="14" font-family="Virgil, Segoe UI Emoji" font-size="16px" fill="#2b8a3e" text-anchor="start" style="white-space: pre;" direction="ltr">name: Tramvaj</text></g><g stroke-linecap="round" transform="translate(259.6933805224464 324.5232857299459) rotate(0 42.28578186035156 37.142822265625)"><path d="M56.37 2.84 C63.68 4.35, 71.3 8.32, 75.81 13.36 C80.32 18.4, 82.64 26.46, 83.42 33.1 C84.2 39.75, 83.87 47.27, 80.48 53.23 C77.09 59.2, 69.59 65.44, 63.09 68.92 C56.59 72.4, 49.14 74.46, 41.51 74.11 C33.88 73.77, 23.75 70.46, 17.31 66.85 C10.87 63.24, 5.78 58.5, 2.86 52.47 C-0.06 46.44, -1.61 37.32, -0.21 30.69 C1.2 24.05, 5.82 17.67, 11.29 12.67 C16.75 7.66, 24.76 2.17, 32.58 0.66 C40.4 -0.86, 53.68 2.97, 58.19 3.57 C62.69 4.16, 60.03 3.73, 59.6 4.25 M48.91 -0.16 C56.17 0.71, 64.6 5.71, 70.42 10.68 C76.25 15.64, 81.86 23.14, 83.86 29.61 C85.87 36.08, 84.78 43.28, 82.44 49.49 C80.09 55.7, 75.62 62.64, 69.79 66.87 C63.97 71.09, 55.18 74.5, 47.48 74.83 C39.79 75.16, 30.83 71.94, 23.64 68.84 C16.44 65.73, 8.05 61.7, 4.31 56.21 C0.57 50.72, 0.5 42.82, 1.19 35.89 C1.89 28.96, 4.12 20.08, 8.48 14.63 C12.85 9.17, 20.22 5.28, 27.38 3.13 C34.54 0.99, 47.46 2.21, 51.44 1.76 C55.42 1.31, 51.64 -0.03, 51.27 0.44" stroke="#2b8a3e" stroke-width="1" fill="none"></path></g><g transform="translate(358.1626100843884 328.19677380193247) rotate(0 76 12.5)"><text x="0" y="18" font-family="Virgil, Segoe UI Emoji" font-size="20px" fill="#364fc7" text-anchor="start" style="white-space: pre;" direction="ltr">:TransportType</text></g><g transform="translate(358.7341432875134 352.7681238995887) rotate(0 57 10)"><text x="0" y="14" font-family="Virgil, Segoe UI Emoji" font-size="16px" fill="#2b8a3e" text-anchor="start" style="white-space: pre;" direction="ltr">name: Autobus</text></g><g stroke-linecap="round" transform="translate(1000.3669645068214 327.7885357997003) rotate(0 42.28578186035156 37.142822265625)"><path d="M52.45 0.92 C59.67 2.04, 68.7 6.18, 73.94 11.3 C79.18 16.41, 82.67 24.81, 83.89 31.59 C85.11 38.37, 84.13 45.9, 81.26 51.96 C78.39 58.02, 73.06 64.23, 66.67 67.94 C60.28 71.65, 50.49 74.04, 42.93 74.23 C35.37 74.41, 27.79 72.33, 21.3 69.05 C14.81 65.77, 7.61 60.56, 4 54.54 C0.39 48.53, -1.43 39.91, -0.36 32.95 C0.71 25.99, 5.45 18.02, 10.42 12.76 C15.38 7.5, 21.56 3.11, 29.44 1.38 C37.33 -0.34, 52.13 1.8, 57.72 2.42 C63.32 3.04, 63.08 4.34, 63.02 5.1 M30.94 2.51 C37.99 0.24, 47.56 -0.59, 54.76 1.33 C61.96 3.26, 69.04 8.7, 74.14 14.08 C79.23 19.45, 84.35 27.06, 85.34 33.59 C86.33 40.11, 83.37 47.16, 80.07 53.24 C76.76 59.32, 71.75 66.53, 65.5 70.07 C59.24 73.62, 50.07 74.83, 42.52 74.5 C34.97 74.18, 26.61 71.88, 20.2 68.11 C13.79 64.34, 7.29 57.77, 4.06 51.87 C0.84 45.97, -0.23 39.25, 0.86 32.7 C1.95 26.14, 5.69 17.58, 10.6 12.53 C15.5 7.48, 26.9 4.03, 30.31 2.39 C33.72 0.74, 30.53 2.3, 31.05 2.66" stroke="#2b8a3e" stroke-width="1" fill="none"></path></g><g transform="translate(1098.8361940687628 331.4620238716868) rotate(0 76 12.5)"><text x="0" y="18" font-family="Virgil, Segoe UI Emoji" font-size="20px" fill="#364fc7" text-anchor="start" style="white-space: pre;" direction="ltr">:TransportType</text></g><g transform="translate(1099.4077272718878 356.0333739693431) rotate(0 48.5 10)"><text x="0" y="14" font-family="Virgil, Segoe UI Emoji" font-size="16px" fill="#2b8a3e" text-anchor="start" style="white-space: pre;" direction="ltr">name: Metro</text></g><g stroke-linecap="round"><g transform="translate(137.43838871859606 538.7273916520998) rotate(0 68.43304456413165 -73.96363729776716)"><path d="M-0.29 1.06 C22.13 -23.82, 112.31 -124.07, 134.78 -148.99 M1.75 0.58 C24.56 -24.17, 114.63 -123.05, 137.16 -147.66" stroke="#000000" stroke-width="1" fill="none"></path></g><g transform="translate(137.43838871859606 538.7273916520998) rotate(0 68.43304456413165 -73.96363729776716)"><path d="M127.5 -120.96 C128.64 -130.24, 133.18 -138.06, 136.94 -147.08 M125.17 -119.73 C128.41 -127.68, 131.44 -133.41, 137.1 -147" stroke="#000000" stroke-width="1" fill="none"></path></g><g transform="translate(137.43838871859606 538.7273916520998) rotate(0 68.43304456413165 -73.96363729776716)"><path d="M112.35 -134.8 C118.34 -139.64, 127.7 -143.06, 136.94 -147.08 M110.02 -133.57 C117.01 -138.06, 123.84 -140.31, 137.1 -147" stroke="#000000" stroke-width="1" fill="none"></path></g></g><mask></mask><g stroke-linecap="round"><g transform="translate(430.4995633837746 537.911046437256) rotate(0 -61.71013749098432 -69.06405703281473)"><path d="M-0.75 0.38 C-21.38 -22.4, -103.37 -113.75, -123.85 -136.74 M1.05 -0.47 C-19.67 -23.59, -103.64 -115.86, -124.47 -138.51" stroke="#000000" stroke-width="1" fill="none"></path></g><g transform="translate(430.4995633837746 537.911046437256) rotate(0 -61.71013749098432 -69.06405703281473)"><path d="M-97.25 -123.59 C-104.48 -127.44, -113.63 -133.26, -125.3 -136.51 M-98.05 -124.72 C-105.7 -128.81, -114.65 -134.01, -125.36 -139.06" stroke="#000000" stroke-width="1" fill="none"></path></g><g transform="translate(430.4995633837746 537.911046437256) rotate(0 -61.71013749098432 -69.06405703281473)"><path d="M-112.4 -109.74 C-115.21 -117.53, -119.95 -127.39, -125.3 -136.51 M-113.2 -110.88 C-116.18 -119.38, -120.4 -128.91, -125.36 -139.06" stroke="#000000" stroke-width="1" fill="none"></path></g></g><mask></mask><g stroke-linecap="round"><g transform="translate(769.2751109563192 538.7273916520998) rotate(0 -223.9819454793717 -71.10246911208414)"><path d="M0.05 1.03 C-74.38 -22.6, -372.55 -117.82, -446.96 -141.57 M-1.38 0.52 C-75.96 -23.44, -373.75 -119.26, -448.02 -143.23" stroke="#000000" stroke-width="1" fill="none"></path></g><g transform="translate(769.2751109563192 538.7273916520998) rotate(0 -223.9819454793717 -71.10246911208414)"><path d="M-416.33 -144.69 C-424.7 -143.42, -432.69 -143.27, -446.86 -143.97 M-418.92 -143.71 C-429.62 -144.04, -441.22 -143.46, -447.43 -143.64" stroke="#000000" stroke-width="1" fill="none"></path></g><g transform="translate(769.2751109563192 538.7273916520998) rotate(0 -223.9819454793717 -71.10246911208414)"><path d="M-422.62 -125.16 C-429.32 -129.18, -435.6 -134.33, -446.86 -143.97 M-425.21 -124.18 C-433.65 -131.84, -442.86 -138.66, -447.43 -143.64" stroke="#000000" stroke-width="1" fill="none"></path></g></g><mask></mask><g stroke-linecap="round"><g transform="translate(774.989396670605 537.911046437256) rotate(0 -44.715664259185985 -70.65184622252623)"><path d="M1.04 0.85 C-13.68 -22.99, -74.45 -118.29, -89.34 -142.16 M0.13 0.26 C-14.7 -23.54, -75.67 -117.46, -90.48 -141.11" stroke="#000000" stroke-width="1" fill="none"></path></g><g transform="translate(774.989396670605 537.911046437256) rotate(0 -44.715664259185985 -70.65184622252623)"><path d="M-65.23 -123.48 C-73.53 -125.52, -79.05 -132.44, -90.08 -142.18 M-65.75 -122.9 C-76.03 -130.42, -83.86 -136.05, -90.77 -140.88" stroke="#000000" stroke-width="1" fill="none"></path></g><g transform="translate(774.989396670605 537.911046437256) rotate(0 -44.715664259185985 -70.65184622252623)"><path d="M-82.52 -112.43 C-87.14 -117.03, -88.9 -126.35, -90.08 -142.18 M-83.04 -111.85 C-87.01 -123.32, -88.63 -132.93, -90.77 -140.88" stroke="#000000" stroke-width="1" fill="none"></path></g></g><mask></mask><g stroke-linecap="round"><g transform="translate(791.3160393882388 538.7273916520998) rotate(0 114.10635116761148 -70.8836567922894)"><path d="M0.49 0.64 C38.61 -23.1, 190.79 -118.66, 228.92 -142.41 M-0.71 -0.06 C37.26 -23.64, 189.89 -117.67, 228.15 -141.07" stroke="#000000" stroke-width="1" fill="none"></path></g><g transform="translate(791.3160393882388 538.7273916520998) rotate(0 114.10635116761148 -70.8836567922894)"><path d="M210.57 -116.99 C214.86 -124, 221.76 -134.09, 226.77 -142.06 M208.84 -117.77 C215.36 -124.33, 220.53 -132.16, 228.24 -141.85" stroke="#000000" stroke-width="1" fill="none"></path></g><g transform="translate(791.3160393882388 538.7273916520998) rotate(0 114.10635116761148 -70.8836567922894)"><path d="M199.83 -134.48 C207.57 -135.93, 217.91 -140.41, 226.77 -142.06 M198.1 -135.26 C207.83 -136.61, 216.21 -139.22, 228.24 -141.85" stroke="#000000" stroke-width="1" fill="none"></path></g></g><mask></mask><g stroke-linecap="round"><g transform="translate(1050.0914125746228 530.5642010829034) rotate(0 -355.60538986324514 -73.50984612778784)"><path d="M-0.04 -1.17 C-118.36 -25.38, -591.83 -121.8, -710.14 -146.31 M-1.52 0.83 C-119.99 -23.6, -592.99 -123.16, -711.17 -147.85" stroke="#000000" stroke-width="1" fill="none"></path></g><g transform="translate(1050.0914125746228 530.5642010829034) rotate(0 -355.60538986324514 -73.50984612778784)"><path d="M-683.42 -152.36 C-688.02 -150.76, -699.58 -151.48, -709.76 -149.19 M-682.25 -152.9 C-690.56 -149.94, -699.85 -149.68, -712.02 -147.54" stroke="#000000" stroke-width="1" fill="none"></path></g><g transform="translate(1050.0914125746228 530.5642010829034) rotate(0 -355.60538986324514 -73.50984612778784)"><path d="M-687.63 -132.27 C-690.88 -136.33, -701.24 -142.7, -709.76 -149.19 M-686.47 -132.81 C-693.34 -136.33, -701.26 -142.56, -712.02 -147.54" stroke="#000000" stroke-width="1" fill="none"></path></g></g><mask></mask><g stroke-linecap="round"><g transform="translate(1068.0507457219442 529.7477686749793) rotate(0 -9.957469632380821 -62.813794083095054)"><path d="M-1.06 -0.17 C-4.23 -21.07, -16.39 -104.8, -19.57 -125.46 M0.59 -1.3 C-2.69 -22.05, -16.87 -103.42, -20.5 -124.22" stroke="#000000" stroke-width="1" fill="none"></path></g><g transform="translate(1068.0507457219442 529.7477686749793) rotate(0 -9.957469632380821 -62.813794083095054)"><path d="M-5.84 -98.16 C-10.3 -105.89, -11.88 -112.35, -18.55 -124.95 M-4.64 -98.51 C-8.5 -102.93, -11.9 -109.57, -20.13 -123.89" stroke="#000000" stroke-width="1" fill="none"></path></g><g transform="translate(1068.0507457219442 529.7477686749793) rotate(0 -9.957469632380821 -62.813794083095054)"><path d="M-26.06 -94.64 C-25.36 -103.1, -21.77 -110.45, -18.55 -124.95 M-24.85 -94.99 C-24.37 -100.26, -23.43 -107.65, -20.13 -123.89" stroke="#000000" stroke-width="1" fill="none"></path></g></g><mask></mask><g stroke-linecap="round" transform="translate(582.1407293072796 1059.8362870535705) rotate(0 42.28578186035156 37.142822265625)"><path d="M61.6 3.86 C68.26 6.7, 74.83 14.15, 78.5 19.94 C82.18 25.73, 83.97 31.92, 83.66 38.6 C83.36 45.29, 80.9 54.44, 76.66 60.07 C72.43 65.69, 65.32 70.2, 58.27 72.35 C51.22 74.5, 42.1 74.54, 34.36 72.98 C26.62 71.43, 17.39 67.7, 11.82 63.01 C6.25 58.33, 2.39 51.35, 0.92 44.86 C-0.56 38.37, 0.46 30.36, 2.97 24.08 C5.47 17.8, 10.03 11.16, 15.94 7.2 C21.85 3.25, 30.39 0.48, 38.42 0.37 C46.44 0.25, 59.29 5.27, 64.1 6.52 C68.91 7.77, 67.68 7.45, 67.28 7.88 M39.81 -1.14 C47.06 -2.23, 57.69 0.24, 64.65 3.91 C71.6 7.58, 78.16 14.65, 81.55 20.88 C84.94 27.11, 86.28 34.76, 84.97 41.31 C83.66 47.87, 78.64 54.88, 73.72 60.21 C68.79 65.54, 62.67 71.23, 55.43 73.29 C48.19 75.35, 37.68 74.15, 30.27 72.56 C22.85 70.98, 15.67 68.35, 10.96 63.76 C6.26 59.16, 3.56 51.97, 2.04 45.01 C0.51 38.06, -1 28.56, 1.81 22.01 C4.62 15.46, 12.43 9.47, 18.89 5.72 C25.34 1.97, 36.9 0.18, 40.54 -0.5 C44.17 -1.17, 40.55 1.16, 40.7 1.65" stroke="#2b8a3e" stroke-width="1" fill="none"></path></g><g transform="translate(680.6099588692216 1043.509775125557) rotate(0 59 12.5)"><text x="0" y="18" font-family="Virgil, Segoe UI Emoji" font-size="20px" fill="#364fc7" text-anchor="start" style="white-space: pre;" direction="ltr">:Departures</text></g><g transform="translate(681.1814920723466 1068.0811252232133) rotate(0 146.5 50.5)"><text x="0" y="14.2" font-family="Virgil, Segoe UI Emoji" font-size="16px" fill="#2b8a3e" text-anchor="start" style="white-space: pre;" direction="ltr">businessDay : [5:04, 5:24, 5:44, ... ]</text><text x="0" y="34.4" font-family="Virgil, Segoe UI Emoji" font-size="16px" fill="#2b8a3e" text-anchor="start" style="white-space: pre;" direction="ltr">satruday : [5:04, 5:24, 5:44, ...]</text><text x="0" y="54.599999999999994" font-family="Virgil, Segoe UI Emoji" font-size="16px" fill="#2b8a3e" text-anchor="start" style="white-space: pre;" direction="ltr">sunday : [5:04, 5:24, 5:44, ...]</text><text x="0" y="74.8" font-family="Virgil, Segoe UI Emoji" font-size="16px" fill="#2b8a3e" text-anchor="start" style="white-space: pre;" direction="ltr">holidays : 17.11., 24.12., ...</text><text x="0" y="95" font-family="Virgil, Segoe UI Emoji" font-size="16px" fill="#2b8a3e" text-anchor="start" style="white-space: pre;" direction="ltr"></text></g><g stroke-linecap="round"><g transform="translate(622.6954546258114 1058.789987881269) rotate(0 -1.3335298495694587 -61.27361051588093)"><path d="M0.95 0.23 C0.42 -19.81, -3.14 -100.87, -3.61 -121 M-0.02 -0.69 C-0.12 -21.02, -0.93 -102.51, -1.27 -122.78" stroke="#000000" stroke-width="1" fill="none"></path></g><g transform="translate(622.6954546258114 1058.789987881269) rotate(0 -1.3335298495694587 -61.27361051588093)"><path d="M-10 -28.73 C-6.51 -18.62, -2.78 -12.83, -0.06 -0.98 M-9.59 -27.45 C-7.46 -18.89, -4.31 -10.44, 0.68 -0.08" stroke="#000000" stroke-width="1" fill="none"></path></g><g transform="translate(622.6954546258114 1058.789987881269) rotate(0 -1.3335298495694587 -61.27361051588093)"><path d="M10.5 -29.52 C8.62 -19.04, 6.96 -13.05, -0.06 -0.98 M10.91 -28.24 C7.03 -19.41, 4.15 -10.74, 0.68 -0.08" stroke="#000000" stroke-width="1" fill="none"></path></g></g><mask></mask><g stroke-linecap="round" transform="translate(1880.3472630980605 322.0984899851504) rotate(0 42.28578186035156 37.142822265625)"><path d="M43.37 -0.05 C50.79 -0.77, 59.77 1.65, 66.08 5.37 C72.38 9.08, 78.29 15.78, 81.2 22.23 C84.11 28.68, 84.92 37.58, 83.55 44.08 C82.18 50.57, 77.87 56.42, 72.98 61.21 C68.08 65.99, 61.32 71.02, 54.16 72.79 C47.01 74.56, 37.53 73.91, 30.04 71.82 C22.54 69.73, 14.21 65.21, 9.2 60.23 C4.2 55.24, 0.87 48.35, 0 41.9 C-0.86 35.46, 0.76 27.57, 4.01 21.54 C7.25 15.52, 12.52 9.16, 19.5 5.74 C26.48 2.33, 41.25 1.72, 45.88 1.05 C50.51 0.39, 47.44 1.31, 47.26 1.76 M24.96 3.78 C31.18 0.35, 41 -0.88, 48.11 -0.29 C55.22 0.29, 61.73 3.2, 67.63 7.28 C73.54 11.36, 80.96 17.7, 83.55 24.19 C86.13 30.67, 85.24 39.37, 83.12 46.18 C81 52.98, 76.27 60.33, 70.81 65 C65.35 69.68, 57.97 73.36, 50.36 74.23 C42.74 75.11, 32.18 73.14, 25.11 70.25 C18.04 67.37, 12.23 62.21, 7.93 56.91 C3.63 51.62, -0.46 44.8, -0.68 38.5 C-0.89 32.19, 2.55 25.04, 6.65 19.09 C10.75 13.13, 20.97 5.02, 23.91 2.76 C26.86 0.51, 23.89 4.91, 24.32 5.56" stroke="#2b8a3e" stroke-width="1" fill="none"></path></g><g transform="translate(1978.8164926600025 325.771978057137) rotate(0 76 12.5)"><text x="0" y="18" font-family="Virgil, Segoe UI Emoji" font-size="20px" fill="#364fc7" text-anchor="start" style="white-space: pre;" direction="ltr">:TransportType</text></g><g transform="translate(1979.3880258631275 350.34332815479326) rotate(0 41 10)"><text x="0" y="14" font-family="Virgil, Segoe UI Emoji" font-size="16px" fill="#2b8a3e" text-anchor="start" style="white-space: pre;" direction="ltr">name: Vlak</text></g><g stroke-linecap="round" transform="translate(1396.547345642603 187.42675115253428) rotate(0 42.28578186035156 37.142822265625)"><path d="M58.13 3.61 C64.88 5.62, 72 10.53, 76.32 15.89 C80.63 21.25, 83.57 29, 84 35.75 C84.43 42.5, 82.85 50.77, 78.89 56.39 C74.93 62, 66.93 66.5, 60.25 69.46 C53.56 72.42, 46.09 74.62, 38.76 74.15 C31.43 73.68, 22.41 70.75, 16.26 66.66 C10.11 62.57, 4.38 56.17, 1.85 49.59 C-0.67 43.01, -0.78 33.68, 1.11 27.18 C3.01 20.68, 7.69 15.14, 13.23 10.59 C18.77 6.03, 25.59 0.6, 34.37 -0.16 C43.15 -0.92, 59.85 4.37, 65.89 6.02 C71.93 7.68, 71.11 9.14, 70.59 9.77 M26.26 1.6 C32.71 -1.29, 42.56 -0.1, 50.06 1.3 C57.55 2.7, 65.82 5.33, 71.23 10.01 C76.64 14.7, 80.87 23.15, 82.54 29.42 C84.2 35.7, 83.76 41.6, 81.23 47.68 C78.7 53.76, 72.86 61.26, 67.33 65.89 C61.81 70.53, 55.21 74.87, 48.1 75.48 C41 76.1, 31.63 72.99, 24.7 69.58 C17.76 66.18, 10.64 60.85, 6.5 55.06 C2.35 49.27, -0.38 41.57, -0.19 34.84 C0 28.11, 3.24 20.18, 7.63 14.67 C12.02 9.16, 22.98 3.4, 26.14 1.78 C29.3 0.17, 26.32 4.15, 26.59 4.98" stroke="#2b8a3e" stroke-width="1" fill="none"></path></g><g transform="translate(1495.016575204545 191.10023922452086) rotate(0 90.5 12.5)"><text x="0" y="18" font-family="Virgil, Segoe UI Emoji" font-size="20px" fill="#364fc7" text-anchor="start" style="white-space: pre;" direction="ltr">:DestinationTicket</text></g><g transform="translate(1495.58810840767 215.6715893221771) rotate(0 73.5 30.5)"><text x="0" y="14.333333333333332" font-family="Virgil, Segoe UI Emoji" font-size="16px" fill="#2b8a3e" text-anchor="start" style="white-space: pre;" direction="ltr">id : 1</text><text x="0" y="34.666666666666664" font-family="Virgil, Segoe UI Emoji" font-size="16px" fill="#2b8a3e" text-anchor="start" style="white-space: pre;" direction="ltr">validFrom : 1.1.2001</text><text x="0" y="55" font-family="Virgil, Segoe UI Emoji" font-size="16px" fill="#2b8a3e" text-anchor="start" style="white-space: pre;" direction="ltr">validTo : 1.1.3001</text></g><g stroke-linecap="round" transform="translate(2063.221103266311 532.0658902927591) rotate(0 42.28578186035156 37.142822265625)"><path d="M58.28 3.03 C65.36 5.07, 73.59 10.86, 77.88 16.57 C82.17 22.28, 84.06 30.52, 84.04 37.26 C84.01 44, 81.54 51.54, 77.71 57.01 C73.88 62.49, 67.7 67.16, 61.03 70.11 C54.36 73.06, 45.33 75.6, 37.69 74.71 C30.05 73.82, 21.23 69.26, 15.21 64.76 C9.19 60.27, 3.94 54.15, 1.59 47.76 C-0.76 41.38, -0.97 32.66, 1.12 26.43 C3.21 20.21, 8.5 14.71, 14.12 10.41 C19.74 6.12, 26.32 1.46, 34.86 0.64 C43.4 -0.18, 59.52 4.15, 65.35 5.5 C71.17 6.85, 70.27 8.29, 69.78 8.76 M34.85 -0.37 C42.14 -1.53, 52.62 1.71, 59.83 4.6 C67.04 7.48, 74.04 11.43, 78.14 16.91 C82.24 22.39, 84.26 30.58, 84.44 37.47 C84.61 44.36, 83.08 52.52, 79.18 58.24 C75.28 63.97, 68 69.28, 61.03 71.81 C54.06 74.35, 45.16 74.75, 37.36 73.48 C29.55 72.2, 20.09 68.44, 14.2 64.16 C8.31 59.89, 4.01 54.17, 2.04 47.82 C0.06 41.47, 0.27 32.62, 2.34 26.07 C4.41 19.52, 8.8 12.83, 14.44 8.51 C20.09 4.2, 32.78 1.48, 36.23 0.16 C39.67 -1.15, 35.11 -0.26, 35.13 0.61" stroke="#2b8a3e" stroke-width="1" fill="none"></path></g><g transform="translate(2162.506808832717 512.0658902927591) rotate(0 40 12.5)"><text x="0" y="18" font-family="Virgil, Segoe UI Emoji" font-size="20px" fill="#364fc7" text-anchor="start" style="white-space: pre;" direction="ltr">:Station</text></g><g transform="translate(2163.078342035842 536.6372403904154) rotate(0 91.5 30.5)"><text x="0" y="14.333333333333332" font-family="Virgil, Segoe UI Emoji" font-size="16px" fill="#2b8a3e" text-anchor="start" style="white-space: pre;" direction="ltr">name: Valašské meziřící</text><text x="0" y="34.666666666666664" font-family="Virgil, Segoe UI Emoji" font-size="16px" fill="#2b8a3e" text-anchor="start" style="white-space: pre;" direction="ltr">latitude: 49.4667696</text><text x="0" y="55" font-family="Virgil, Segoe UI Emoji" font-size="16px" fill="#2b8a3e" text-anchor="start" style="white-space: pre;" direction="ltr">longitude: 17.9645671</text></g><g transform="translate(2407.0265247421153 690.642050708056) rotate(0 79.5 20.5)"><text x="0" y="13.5" font-family="Virgil, Segoe UI Emoji" font-size="16px" fill="#2b8a3e" text-anchor="start" style="white-space: pre;" direction="ltr">order : 0</text><text x="0" y="34" font-family="Virgil, Segoe UI Emoji" font-size="16px" fill="#2b8a3e" text-anchor="start" style="white-space: pre;" direction="ltr">minutesToNext : 25</text></g><g stroke-linecap="round" transform="translate(2355.2212558542014 520.4229764743998) rotate(0 42.28578186035156 37.142822265625)"><path d="M44.99 0.56 C52.4 0.31, 61.99 2.99, 68.25 7.08 C74.51 11.17, 80.02 18.91, 82.56 25.12 C85.1 31.33, 85.31 38.03, 83.48 44.35 C81.65 50.66, 77.06 58.32, 71.58 63.01 C66.11 67.7, 57.99 70.89, 50.62 72.5 C43.26 74.11, 34.56 74.87, 27.41 72.68 C20.26 70.48, 12.13 64.86, 7.72 59.33 C3.3 53.8, 1.19 46.27, 0.93 39.48 C0.67 32.69, 2.57 24.5, 6.16 18.59 C9.74 12.67, 14.83 7.05, 22.44 4 C30.05 0.96, 45.95 0.54, 51.84 0.33 C57.73 0.12, 57.97 2.02, 57.77 2.77 M60.59 4.32 C67.48 6.82, 75.38 13.25, 79.52 19.03 C83.67 24.81, 85.69 32.58, 85.45 38.99 C85.21 45.39, 82.63 52.28, 78.11 57.46 C73.59 62.63, 65.43 67.33, 58.34 70.04 C51.25 72.75, 42.85 74.77, 35.55 73.72 C28.26 72.68, 20.26 68.39, 14.59 63.78 C8.92 59.17, 3.59 52.42, 1.54 46.06 C-0.52 39.7, 0.12 31.96, 2.26 25.62 C4.4 19.27, 8.59 11.99, 14.37 7.99 C20.15 3.98, 29 2.24, 36.96 1.57 C44.93 0.9, 58.33 3.51, 62.19 3.97 C66.04 4.43, 60.52 3.7, 60.11 4.31" stroke="#2b8a3e" stroke-width="1" fill="none"></path></g><g transform="translate(2458.649905756545 507.4230069919779) rotate(0 40 12.5)"><text x="0" y="18" font-family="Virgil, Segoe UI Emoji" font-size="20px" fill="#364fc7" text-anchor="start" style="white-space: pre;" direction="ltr">:Station</text></g><g transform="translate(2458.0784946237322 533.4228544040873) rotate(0 84 30.5)"><text x="0" y="14.333333333333332" font-family="Virgil, Segoe UI Emoji" font-size="16px" fill="#2b8a3e" text-anchor="start" style="white-space: pre;" direction="ltr">name: Púchov</text><text x="0" y="34.666666666666664" font-family="Virgil, Segoe UI Emoji" font-size="16px" fill="#2b8a3e" text-anchor="start" style="white-space: pre;" direction="ltr">latitude: 49.1578426</text><text x="0" y="55" font-family="Virgil, Segoe UI Emoji" font-size="16px" fill="#2b8a3e" text-anchor="start" style="white-space: pre;" direction="ltr">longitude: 18.2515321</text></g><g transform="translate(2116.9664831629566 693.3544424994976) rotate(0 80 20.5)"><text x="0" y="13.5" font-family="Virgil, Segoe UI Emoji" font-size="16px" fill="#2b8a3e" text-anchor="start" style="white-space: pre;" direction="ltr">order : 3</text><text x="0" y="34" font-family="Virgil, Segoe UI Emoji" font-size="16px" fill="#2b8a3e" text-anchor="start" style="white-space: pre;" direction="ltr">minutesToNext : 20</text></g><g stroke-linecap="round" transform="translate(1906.649875238967 805.7800321384623) rotate(0 52.28570556640625 47.714324951171875)"><path d="M39.49 0.48 C47.18 -2.24, 57.9 -0.93, 66.23 1.24 C74.56 3.41, 83.33 7.57, 89.49 13.52 C95.64 19.46, 101.09 29.02, 103.18 36.92 C105.28 44.82, 104.31 53.43, 102.04 60.93 C99.76 68.44, 95.54 76.52, 89.51 81.94 C83.48 87.36, 74.43 91.6, 65.86 93.47 C57.29 95.35, 46.68 95.4, 38.11 93.19 C29.54 90.98, 20.58 85.99, 14.44 80.22 C8.29 74.46, 3.39 66.17, 1.23 58.6 C-0.93 51.03, -1.12 42.29, 1.47 34.82 C4.07 27.34, 9.09 19.53, 16.8 13.75 C24.52 7.96, 41.18 2.08, 47.77 0.09 C54.35 -1.89, 56.11 0.94, 56.32 1.84 M68.78 1.4 C76.76 3.3, 86.13 10.36, 92.06 16.43 C97.98 22.51, 102.73 30.14, 104.35 37.83 C105.97 45.53, 104.7 54.99, 101.77 62.61 C98.84 70.22, 93.54 78.3, 86.77 83.54 C80.01 88.78, 69.84 92.27, 61.2 94.03 C52.55 95.79, 42.73 96.57, 34.9 94.1 C27.07 91.62, 19.92 85.44, 14.22 79.2 C8.52 72.95, 2.45 64.4, 0.7 56.65 C-1.04 48.89, 0.63 40.05, 3.74 32.67 C6.86 25.3, 13.07 17.66, 19.41 12.38 C25.75 7.1, 33.23 2.39, 41.8 0.99 C50.37 -0.41, 66.22 3.41, 70.82 3.97 C75.42 4.52, 69.88 3.9, 69.41 4.3" stroke="#2b8a3e" stroke-width="1" fill="none"></path></g><g transform="translate(2020.2209811959983 836.9947538181498) rotate(0 57.5 12.5)"><text x="0" y="18" font-family="Virgil, Segoe UI Emoji" font-size="20px" fill="#364fc7" text-anchor="start" style="white-space: pre;" direction="ltr">:TrafficLine</text></g><g transform="translate(2023.0781589303733 865.137392978306) rotate(0 123.5 10)"><text x="0" y="14" font-family="Virgil, Segoe UI Emoji" font-size="16px" fill="#2b8a3e" text-anchor="start" style="white-space: pre;" direction="ltr">name : EC 120 Valašský expres</text></g><g stroke-linecap="round"><g transform="translate(2002.8774488609379 824.6137334668641) rotate(0 199.21933733109825 -114.02270649737088)"><path d="M0.66 0.84 C59.85 -7.81, 289.46 -14.21, 355.6 -52.5 C421.73 -90.79, 390.47 -199.41, 397.45 -228.89 M-0.46 0.24 C58.53 -8.25, 288.46 -13.53, 354.61 -51.56 C420.76 -89.59, 389.29 -198.39, 396.44 -227.94" stroke="#000000" stroke-width="1" fill="none"></path></g><g transform="translate(2002.8774488609379 824.6137334668641) rotate(0 199.21933733109825 -114.02270649737088)"><path d="M408.31 -199.94 C401.61 -210.03, 398.81 -219.46, 394.46 -227.57 M407.75 -199.87 C403.89 -211.09, 399.2 -221.74, 396.14 -228.63" stroke="#000000" stroke-width="1" fill="none"></path></g><g transform="translate(2002.8774488609379 824.6137334668641) rotate(0 199.21933733109825 -114.02270649737088)"><path d="M387.79 -199.79 C388.02 -210.05, 392.15 -219.52, 394.46 -227.57 M387.23 -199.72 C391.22 -211.03, 394.39 -221.74, 396.14 -228.63" stroke="#000000" stroke-width="1" fill="none"></path></g></g><mask></mask><g stroke-linecap="round"><g transform="translate(1983.968380206705 810.1379940755601) rotate(0 64.06629035806702 -100.32831578096625)"><path d="M-0.7 -0.42 C18.68 -16.15, 94.06 -61.51, 115.16 -94.81 C136.25 -128.11, 124.23 -182.94, 125.88 -200.24 M1.13 -1.69 C20.96 -17.76, 96.49 -63.89, 117.24 -96.82 C137.99 -129.74, 124.28 -181.96, 125.63 -199.26" stroke="#000000" stroke-width="1" fill="none"></path></g><g transform="translate(1983.968380206705 810.1379940755601) rotate(0 64.06629035806702 -100.32831578096625)"><path d="M136.98 -173.77 C135.69 -175.82, 131.78 -182.82, 127.32 -199.34 M137.27 -172.08 C132.51 -182.65, 127.84 -193.38, 125.81 -198.35" stroke="#000000" stroke-width="1" fill="none"></path></g><g transform="translate(1983.968380206705 810.1379940755601) rotate(0 64.06629035806702 -100.32831578096625)"><path d="M116.5 -172.45 C119.41 -174.66, 119.69 -181.92, 127.32 -199.34 M116.79 -170.77 C119.89 -181.87, 123.09 -193.1, 125.81 -198.35" stroke="#000000" stroke-width="1" fill="none"></path></g></g><mask></mask><g stroke-linecap="round" transform="translate(1722.1022387527319 530.7917453177934) rotate(0 42.28578186035156 37.142822265625)"><path d="M59.06 2.9 C65.88 4.93, 72.81 10.85, 76.94 16.41 C81.07 21.96, 83.61 29.34, 83.83 36.24 C84.06 43.14, 82.15 52.05, 78.26 57.81 C74.38 63.58, 67.48 68.07, 60.53 70.83 C53.59 73.59, 44.07 75.12, 36.6 74.36 C29.12 73.61, 21.38 70.58, 15.68 66.29 C9.99 62, 4.69 55.22, 2.43 48.63 C0.17 42.03, 0.21 33.41, 2.12 26.72 C4.02 20.03, 8.21 12.88, 13.85 8.5 C19.5 4.11, 27.42 0.95, 36.01 0.4 C44.59 -0.16, 59.81 3.73, 65.36 5.16 C70.91 6.6, 69.75 8.43, 69.33 9.02 M30.34 3.34 C37.16 0.85, 45.96 -0.63, 53.11 0.94 C60.26 2.51, 68 7.59, 73.24 12.76 C78.47 17.94, 83.04 25.64, 84.51 31.99 C85.98 38.33, 85.06 44.64, 82.05 50.83 C79.04 57.01, 72.62 65.15, 66.44 69.11 C60.27 73.07, 52.53 74.57, 45.02 74.6 C37.51 74.63, 28.27 72.67, 21.38 69.3 C14.5 65.92, 7.36 60.37, 3.7 54.35 C0.03 48.34, -1.51 39.72, -0.62 33.21 C0.27 26.69, 4.08 20.38, 9.03 15.26 C13.98 10.14, 25.48 4.51, 29.08 2.49 C32.68 0.47, 30.42 2.61, 30.65 3.13" stroke="#2b8a3e" stroke-width="1" fill="none"></path></g><g transform="translate(1821.3879443191381 510.7917453177934) rotate(0 40 12.5)"><text x="0" y="18" font-family="Virgil, Segoe UI Emoji" font-size="20px" fill="#364fc7" text-anchor="start" style="white-space: pre;" direction="ltr">:Station</text></g><g transform="translate(1821.9594775222631 535.3630954154496) rotate(0 87.5 30.5)"><text x="0" y="14.333333333333332" font-family="Virgil, Segoe UI Emoji" font-size="16px" fill="#2b8a3e" text-anchor="start" style="white-space: pre;" direction="ltr">name: Červenka</text><text x="0" y="34.666666666666664" font-family="Virgil, Segoe UI Emoji" font-size="16px" fill="#2b8a3e" text-anchor="start" style="white-space: pre;" direction="ltr">latitude: 49.7285807</text><text x="0" y="55" font-family="Virgil, Segoe UI Emoji" font-size="16px" fill="#2b8a3e" text-anchor="start" style="white-space: pre;" direction="ltr">longitude: 16.9846574</text></g><g transform="translate(1789.1813418916631 695.5115551718264) rotate(0 76.5 20.5)"><text x="0" y="13.5" font-family="Virgil, Segoe UI Emoji" font-size="16px" fill="#2b8a3e" text-anchor="start" style="white-space: pre;" direction="ltr">order : 7</text><text x="0" y="34" font-family="Virgil, Segoe UI Emoji" font-size="16px" fill="#2b8a3e" text-anchor="start" style="white-space: pre;" direction="ltr">minutesToNext : 13</text></g><g stroke-linecap="round" transform="translate(1402.3266039871069 529.8733406023919) rotate(0 42.28578186035156 37.142822265625)"><path d="M46.07 0.06 C53.25 0.18, 62.45 4.34, 68.6 8.56 C74.75 12.77, 80.4 19.08, 82.99 25.35 C85.57 31.62, 86.05 39.82, 84.11 46.17 C82.18 52.52, 77.09 58.83, 71.36 63.42 C65.64 68.02, 57.18 72.26, 49.75 73.72 C42.33 75.18, 33.86 74.66, 26.8 72.2 C19.75 69.74, 11.96 64.43, 7.43 58.95 C2.89 53.48, -0.09 46.14, -0.43 39.34 C-0.78 32.54, 1.57 24.03, 5.35 18.16 C9.14 12.28, 14.99 6.88, 22.29 4.08 C29.59 1.28, 44.45 1.82, 49.16 1.35 C53.87 0.89, 50.8 0.74, 50.55 1.29 M49.95 0.85 C57.17 1.68, 67.44 7.01, 73.08 11.77 C78.72 16.53, 82.22 23.23, 83.78 29.4 C85.34 35.57, 84.9 42.76, 82.41 48.8 C79.93 54.84, 74.92 61.46, 68.87 65.62 C62.83 69.78, 53.6 73, 46.15 73.75 C38.7 74.49, 30.82 72.9, 24.15 70.08 C17.48 67.27, 10.07 62.66, 6.14 56.85 C2.22 51.04, 0.27 42.29, 0.62 35.22 C0.97 28.15, 3.93 19.67, 8.26 14.41 C12.58 9.15, 19.38 6.09, 26.59 3.65 C33.79 1.21, 47.41 0.23, 51.49 -0.22 C55.56 -0.66, 51.24 0.14, 51.03 0.98" stroke="#2b8a3e" stroke-width="1" fill="none"></path></g><g transform="translate(1501.6123095535131 509.8733406023918) rotate(0 40 12.5)"><text x="0" y="18" font-family="Virgil, Segoe UI Emoji" font-size="20px" fill="#364fc7" text-anchor="start" style="white-space: pre;" direction="ltr">:Station</text></g><g transform="translate(1503.7348071121069 531.6284326782846) rotate(0 89 30.5)"><text x="0" y="14.333333333333332" font-family="Virgil, Segoe UI Emoji" font-size="16px" fill="#2b8a3e" text-anchor="start" style="white-space: pre;" direction="ltr">name: Praha hl.n</text><text x="0" y="34.666666666666664" font-family="Virgil, Segoe UI Emoji" font-size="16px" fill="#2b8a3e" text-anchor="start" style="white-space: pre;" direction="ltr">latitude: 50.0832409</text><text x="0" y="55" font-family="Virgil, Segoe UI Emoji" font-size="16px" fill="#2b8a3e" text-anchor="start" style="white-space: pre;" direction="ltr">longitude: 14.4324401</text></g><g transform="translate(1476.8818887576965 699.7226404063748) rotate(0 74 20.5)"><text x="0" y="13.5" font-family="Virgil, Segoe UI Emoji" font-size="16px" fill="#2b8a3e" text-anchor="start" style="white-space: pre;" direction="ltr">order : 15</text><text x="0" y="34" font-family="Virgil, Segoe UI Emoji" font-size="16px" fill="#2b8a3e" text-anchor="start" style="white-space: pre;" direction="ltr">minutesToNext : 0</text></g><g stroke-linecap="round"><g transform="translate(1926.0468136643833 813.350986074553) rotate(0 -81.28655422991244 -101.60722161959583)"><path d="M1 0.71 C-23.11 -12.95, -116.92 -46.93, -144.19 -81.03 C-171.46 -115.14, -159.44 -183.56, -162.61 -203.93 M0.07 0.04 C-24.17 -14.05, -117.45 -49.01, -144.72 -82.83 C-171.99 -116.65, -160.45 -183.01, -163.58 -202.88" stroke="#000000" stroke-width="1" fill="none"></path></g><g transform="translate(1926.0468136643833 813.350986074553) rotate(0 -81.28655422991244 -101.60722161959583)"><path d="M-151.83 -173.46 C-155.79 -184.89, -161.27 -195.46, -163.26 -202.95 M-153.51 -174.61 C-156.7 -185.19, -160.56 -194.49, -162.71 -201.9" stroke="#000000" stroke-width="1" fill="none"></path></g><g transform="translate(1926.0468136643833 813.350986074553) rotate(0 -81.28655422991244 -101.60722161959583)"><path d="M-172.35 -173.24 C-169.33 -184.92, -167.82 -195.57, -163.26 -202.95 M-174.03 -174.4 C-170.08 -185.06, -166.8 -194.44, -162.71 -201.9" stroke="#000000" stroke-width="1" fill="none"></path></g></g><mask></mask><g stroke-linecap="round"><g transform="translate(1910.1311720903122 830.1197464418843) rotate(0 -234.55070863024787 -111.96053698158389)"><path d="M0.71 0.8 C-67.46 -10.11, -329.86 -26.87, -408.11 -64.46 C-486.36 -102.04, -458.78 -198.17, -468.78 -224.72 M-0.37 0.18 C-68.73 -10.04, -330.49 -25.77, -408.73 -63.11 C-486.97 -100.46, -459.98 -197.32, -469.81 -223.92" stroke="#000000" stroke-width="1" fill="none"></path></g><g transform="translate(1910.1311720903122 830.1197464418843) rotate(0 -234.55070863024787 -111.96053698158389)"><path d="M-456.28 -195.47 C-463.07 -207.62, -468.68 -216.79, -469.89 -222.96 M-457.44 -196.68 C-461.22 -203.55, -463.7 -208.95, -468.84 -223.75" stroke="#000000" stroke-width="1" fill="none"></path></g><g transform="translate(1910.1311720903122 830.1197464418843) rotate(0 -234.55070863024787 -111.96053698158389)"><path d="M-476.76 -194.05 C-475.84 -206.85, -473.73 -216.56, -469.89 -222.96 M-477.91 -195.25 C-476.75 -202.37, -474.28 -208.11, -468.84 -223.75" stroke="#000000" stroke-width="1" fill="none"></path></g></g><mask></mask><g stroke-linecap="round" transform="translate(1918.6584477719841 1001.600441519663) rotate(0 42.28578186035156 37.142822265625)"><path d="M50.16 0.81 C57.38 1.61, 67.02 6.6, 72.61 11.32 C78.19 16.05, 82.05 22.86, 83.67 29.14 C85.29 35.43, 84.83 42.92, 82.33 49.04 C79.82 55.17, 74.68 61.77, 68.65 65.91 C62.61 70.05, 53.61 73.18, 46.11 73.88 C38.61 74.57, 30.35 72.98, 23.65 70.07 C16.96 67.16, 9.81 62.21, 5.94 56.4 C2.07 50.58, 0.06 42.13, 0.43 35.19 C0.81 28.24, 3.8 20.05, 8.17 14.74 C12.55 9.42, 18.42 5.46, 26.67 3.29 C34.92 1.12, 51.6 1.4, 57.68 1.72 C63.77 2.04, 63.49 4.46, 63.19 5.19 M39.6 -0.13 C46.7 -0.96, 56.2 1.27, 63.17 4.85 C70.13 8.42, 77.99 15.28, 81.41 21.31 C84.82 27.35, 84.86 34.47, 83.66 41.06 C82.46 47.64, 79.02 55.48, 74.21 60.8 C69.4 66.12, 61.96 70.97, 54.79 72.98 C47.63 75, 38.44 74.46, 31.22 72.91 C24 71.36, 16.37 68.58, 11.48 63.67 C6.59 58.76, 3.46 50.2, 1.88 43.44 C0.3 36.69, -0.55 29.42, 2 23.12 C4.55 16.82, 10.72 9.57, 17.19 5.64 C23.66 1.72, 36.97 0.46, 40.81 -0.41 C44.65 -1.28, 40.15 -0.38, 40.22 0.45" stroke="#2b8a3e" stroke-width="1" fill="none"></path></g><g transform="translate(2017.1276773339262 985.2739295916497) rotate(0 58.999999999999886 12.5)"><text x="0" y="18" font-family="Virgil, Segoe UI Emoji" font-size="20px" fill="#364fc7" text-anchor="start" style="white-space: pre;" direction="ltr">:Departures</text></g><g transform="translate(2017.6992105370512 1009.8452796893059) rotate(0 155.4999999999999 50.5)"><text x="0" y="14.2" font-family="Virgil, Segoe UI Emoji" font-size="16px" fill="#2b8a3e" text-anchor="start" style="white-space: pre;" direction="ltr">businessDay : [6:08, 10:08, 12:08, ... ]</text><text x="0" y="34.4" font-family="Virgil, Segoe UI Emoji" font-size="16px" fill="#2b8a3e" text-anchor="start" style="white-space: pre;" direction="ltr">satruday : [6:08, 10:08, 12:08, ... ]</text><text x="0" y="54.599999999999994" font-family="Virgil, Segoe UI Emoji" font-size="16px" fill="#2b8a3e" text-anchor="start" style="white-space: pre;" direction="ltr">sunday : [6:08, 10:08, 12:08, ... ]</text><text x="0" y="74.8" font-family="Virgil, Segoe UI Emoji" font-size="16px" fill="#2b8a3e" text-anchor="start" style="white-space: pre;" direction="ltr">holidays : 17.11., 24.12., ...</text><text x="0" y="95" font-family="Virgil, Segoe UI Emoji" font-size="16px" fill="#2b8a3e" text-anchor="start" style="white-space: pre;" direction="ltr"></text></g><g stroke-linecap="round"><g transform="translate(1959.8427647804301 1000.536008003594) rotate(0 -0.7123146477135833 -48.20804431524766)"><path d="M1.08 0.59 C0.75 -15.65, -1.17 -80.9, -1.29 -97.01 M0.18 -0.14 C-0.41 -16.22, -2.5 -79.13, -2.5 -95.42" stroke="#000000" stroke-width="1" fill="none"></path></g><g transform="translate(1959.8427647804301 1000.536008003594) rotate(0 -0.7123146477135833 -48.20804431524766)"><path d="M-8.92 -28.15 C-5.7 -15.58, -0.17 -7.03, 2.1 0.94 M-9.82 -27.59 C-6.02 -20.21, -3.84 -12.32, 1.45 0.66" stroke="#000000" stroke-width="1" fill="none"></path></g><g transform="translate(1959.8427647804301 1000.536008003594) rotate(0 -0.7123146477135833 -48.20804431524766)"><path d="M11.6 -28.68 C7.49 -15.73, 5.69 -7, 2.1 0.94 M10.69 -28.12 C9.34 -20.73, 6.35 -12.7, 1.45 0.66" stroke="#000000" stroke-width="1" fill="none"></path></g></g><mask></mask><g stroke-linecap="round"><g transform="translate(1444.8246487106899 531.2062388818662) rotate(0 220.2245149040915 -76.32628939661383)"><path d="M0.52 -0.06 C73.79 -25.51, 365.6 -127.06, 438.85 -152.59 M-0.66 -1.13 C73.05 -26.39, 367.77 -125.82, 441.11 -151.01" stroke="#000000" stroke-width="1" fill="none"></path></g><g transform="translate(1444.8246487106899 531.2062388818662) rotate(0 220.2245149040915 -76.32628939661383)"><path d="M417.63 -133.63 C423.38 -136.27, 427.79 -140.55, 443 -150.39 M416.76 -132.03 C424.24 -138.79, 431.99 -143.12, 441.5 -151.88" stroke="#000000" stroke-width="1" fill="none"></path></g><g transform="translate(1444.8246487106899 531.2062388818662) rotate(0 220.2245149040915 -76.32628939661383)"><path d="M411.02 -153.06 C418.36 -151.14, 424.33 -150.83, 443 -150.39 M410.15 -151.46 C419.84 -152.18, 429.65 -150.45, 441.5 -151.88" stroke="#000000" stroke-width="1" fill="none"></path></g></g><mask></mask><g stroke-linecap="round"><g transform="translate(1767.4237020370547 530.2820890601602) rotate(0 68.41204122404588 -68.52369922018966)"><path d="M-1.19 0.31 C21.94 -22.6, 114.89 -114.54, 138.01 -137.36 M0.39 -0.57 C23.46 -23.37, 114.52 -113.87, 137.25 -136.35" stroke="#000000" stroke-width="1" fill="none"></path></g><g transform="translate(1767.4237020370547 530.2820890601602) rotate(0 68.41204122404588 -68.52369922018966)"><path d="M124.98 -108.62 C125.81 -115.71, 130.11 -123.68, 136.11 -135.5 M124.04 -108.96 C128.87 -119.58, 134.49 -129.49, 137.29 -136.09" stroke="#000000" stroke-width="1" fill="none"></path></g><g transform="translate(1767.4237020370547 530.2820890601602) rotate(0 68.41204122404588 -68.52369922018966)"><path d="M110.53 -123.19 C114.82 -126.66, 122.57 -131.16, 136.11 -135.5 M109.59 -123.53 C119.84 -128.7, 130.8 -133.22, 137.29 -136.09" stroke="#000000" stroke-width="1" fill="none"></path></g></g><mask></mask><g stroke-linecap="round"><g transform="translate(2100.554711054558 530.8138075707435) rotate(0 -75.04409964904244 -69.92594446090807)"><path d="M-0.9 -0.98 C-26.04 -24.19, -125.07 -116.02, -149.98 -138.96 M0.84 1.12 C-24.55 -22.5, -125.57 -117.34, -150.92 -140.98" stroke="#000000" stroke-width="1" fill="none"></path></g><g transform="translate(2100.554711054558 530.8138075707435) rotate(0 -75.04409964904244 -69.92594446090807)"><path d="M-124.96 -129.2 C-133.4 -134.44, -143.22 -139.98, -150.83 -141.53 M-122.8 -129.79 C-133.31 -134.29, -144.88 -138.65, -151.26 -141.83" stroke="#000000" stroke-width="1" fill="none"></path></g><g transform="translate(2100.554711054558 530.8138075707435) rotate(0 -75.04409964904244 -69.92594446090807)"><path d="M-138.98 -114.22 C-142.19 -124.99, -146.73 -136.16, -150.83 -141.53 M-136.82 -114.8 C-142.12 -125.07, -148.35 -135.14, -151.26 -141.83" stroke="#000000" stroke-width="1" fill="none"></path></g></g><mask></mask><g stroke-linecap="round"><g transform="translate(2397.454032645059 521.5554914452466) rotate(0 -218.83194186603032 -72.503999854552)"><path d="M-0.09 -0.01 C-72.73 -24.35, -363.57 -120.9, -436.35 -145 M-1.59 -1.05 C-74.4 -24.68, -365.44 -119.21, -437.58 -143.5" stroke="#000000" stroke-width="1" fill="none"></path></g><g transform="translate(2397.454032645059 521.5554914452466) rotate(0 -218.83194186603032 -72.503999854552)"><path d="M-407.6 -145.29 C-415.46 -145.83, -422.55 -144.46, -438.22 -143.6 M-407.09 -144.94 C-416.34 -143.99, -425.47 -143.4, -437.4 -144.01" stroke="#000000" stroke-width="1" fill="none"></path></g><g transform="translate(2397.454032645059 521.5554914452466) rotate(0 -218.83194186603032 -72.503999854552)"><path d="M-414.03 -125.8 C-420.39 -131.38, -425.82 -135.06, -438.22 -143.6 M-413.51 -125.45 C-420.99 -130.22, -428.22 -135.41, -437.4 -144.01" stroke="#000000" stroke-width="1" fill="none"></path></g></g><mask></mask><g stroke-linecap="round"><g transform="translate(1905.150620645515 858.9493214953296) rotate(0 -264.5021822015615 -250.97694064322664)"><path d="M0.57 0.16 C-76.45 -10.79, -374.57 -6.54, -461.4 -65.1 C-548.23 -123.66, -529.51 -287.47, -520.42 -351.21 C-511.32 -414.95, -489.22 -422.41, -406.83 -447.56 C-324.43 -472.71, -89.4 -493.06, -26.03 -502.11 M-0.6 -0.81 C-77.82 -11.66, -375.55 -5.6, -462.32 -63.89 C-549.09 -122.17, -530.56 -286.23, -521.23 -350.5 C-511.89 -414.78, -488.64 -424.38, -406.29 -449.53 C-323.93 -474.68, -90.64 -492.59, -27.1 -501.41" stroke="#000000" stroke-width="1" fill="none"></path></g><g transform="translate(1905.150620645515 858.9493214953296) rotate(0 -264.5021822015615 -250.97694064322664)"><path d="M-53.75 -488.06 C-45.5 -493.13, -36.8 -496.81, -25.26 -500.14 M-53.51 -488.43 C-43.71 -493.89, -35.77 -498.03, -26.11 -501.97" stroke="#000000" stroke-width="1" fill="none"></path></g><g transform="translate(1905.150620645515 858.9493214953296) rotate(0 -264.5021822015615 -250.97694064322664)"><path d="M-55.99 -508.45 C-46.83 -506.26, -37.33 -502.65, -25.26 -500.14 M-55.75 -508.83 C-45.13 -507.17, -36.41 -504.17, -26.11 -501.97" stroke="#000000" stroke-width="1" fill="none"></path></g></g><mask></mask><g stroke-linecap="round" transform="translate(2007.8316535274819 453.28924342564187) rotate(0 21.714263916015625 16.28570556640625)"><path d="M-1.88 1.38 L44.42 0.89 L43.78 32.65 L0.76 33.2" stroke="none" stroke-width="0" fill="#fff"></path><path d="M0.4 -0.31 C13.47 0.99, 29.75 -0.99, 44.3 1.7 M-0.45 -0.97 C12.07 0.6, 23.45 0.08, 42.43 0.79 M44.64 1.99 C45.26 13.03, 45.6 24.09, 45.25 31.53 M43.65 0.01 C44.59 6.42, 43.87 14.57, 42.69 31.74 M44.42 32.09 C35.49 32.85, 24.3 31.93, 1.28 32.8 M43.86 32.83 C34.14 32.54, 23.82 33.1, 0.94 32.04 M1.35 31.79 C1.78 20.62, 0.63 7.52, -0.96 0.83 M0.28 33.46 C0.7 20.66, 1.01 7.05, -0.79 -0.82" stroke="#000000" stroke-width="1" fill="none"></path></g><g transform="translate(2016.4030341427163 459.4321267264231) rotate(0 15 10)"><text x="0" y="14" font-family="Virgil, Segoe UI Emoji" font-size="16px" fill="#000000" text-anchor="start" style="white-space: pre;" direction="ltr">Has</text></g><g stroke-linecap="round"><g transform="translate(1438.8067650977332 262.71238860982754) rotate(0 1.1618413724122547 132.67574376969216)"><path d="M-0.45 -0.37 C-0.01 43.94, 2.24 221.44, 2.78 265.71 M1.51 -1.6 C1.81 42.87, 1.85 222.35, 1.95 266.95" stroke="#000000" stroke-width="1" fill="none"></path></g><g transform="translate(1438.8067650977332 262.71238860982754) rotate(0 1.1618413724122547 132.67574376969216)"><path d="M-8.95 239.17 C-6.12 247.89, -3.71 257.16, 0.28 266.78 M-8.81 239.32 C-5.63 244.55, -3.53 250.52, 1.13 267.17" stroke="#000000" stroke-width="1" fill="none"></path></g><g transform="translate(1438.8067650977332 262.71238860982754) rotate(0 1.1618413724122547 132.67574376969216)"><path d="M11.57 239.14 C8.06 247.79, 4.13 257.08, 0.28 266.78 M11.71 239.29 C10.58 244.62, 8.37 250.59, 1.13 267.17" stroke="#000000" stroke-width="1" fill="none"></path></g></g><mask></mask><g stroke-linecap="round"><g transform="translate(1457.1786485211214 258.8981880168745) rotate(0 470.07567621512794 130.32261644336162)"><path d="M0.9 1.03 C25.31 10.03, 15.79 47.46, 146.35 55.06 C276.91 62.66, 651.93 12.64, 784.24 46.63 C916.56 80.61, 913.95 223.65, 940.24 258.98 M-0.09 0.53 C24.69 10.17, 17.91 48.25, 148.47 56.08 C279.03 63.91, 651.32 13.49, 783.27 47.5 C915.23 81.5, 913.88 224.9, 940.19 260.12" stroke="#000000" stroke-width="1" fill="none"></path></g><g transform="translate(1457.1786485211214 258.8981880168745) rotate(0 470.07567621512794 130.32261644336162)"><path d="M922.43 235.41 C924.85 243.07, 930.67 249.31, 940.3 262.05 M920.16 236.39 C926.04 244.31, 932.21 249.67, 941 259.3" stroke="#000000" stroke-width="1" fill="none"></path></g><g transform="translate(1457.1786485211214 258.8981880168745) rotate(0 470.07567621512794 130.32261644336162)"><path d="M941.65 228.23 C938.61 238.09, 938.91 246.4, 940.3 262.05 M939.39 229.21 C940.02 238.91, 940.93 246.24, 941 259.3" stroke="#000000" stroke-width="1" fill="none"></path></g></g><mask></mask><g stroke-linecap="round" transform="translate(1415.9031002641348 296.1462940034411) rotate(0 25.71428934733069 19.523798624674498)"><path d="M0.02 -1.93 L51.28 0.72 L52.7 40.8 L1.17 40.23" stroke="none" stroke-width="0" fill="#fff"></path><path d="M0.07 0.12 C11.46 -0.67, 21.88 -2.06, 52.1 -0.02 M0.84 -0.88 C15.21 -0.43, 28.19 -0.46, 50.62 0.58 M50.78 -0.52 C52.56 10.46, 51.03 18.51, 52.15 40.97 M51.1 0.69 C51.13 12.83, 51.17 27.14, 51.47 38.07 M50.32 39.95 C37.64 37.77, 26.38 41.12, -1.54 37.31 M52.1 39.29 C38.14 38.89, 25.19 39.31, -0.6 38.45 M-1.64 40.28 C-1.19 27.39, 1.12 15.89, 1.06 -1.15 M0.05 38.33 C0.11 29, 0.09 19.35, 0.89 0.3" stroke="#000000" stroke-width="1" fill="none"></path></g><g stroke-linecap="round" transform="translate(1555.9030748328198 294.3844328380765) rotate(0 36.66666666666663 20)"><path d="M-0.41 -0.51 L72.17 1.59 L72.04 41.68 L-1.48 41.69" stroke="none" stroke-width="0" fill="#fff"></path><path d="M0.93 -0.77 C19.07 0.45, 41.17 0.72, 73.57 0.5 M-0.82 -0.3 C19.45 0.3, 38.26 -0.14, 73.15 0.97 M71.56 1.75 C75.09 8.25, 71.77 18.56, 72.6 41.57 M72.77 -0.65 C73.29 14.06, 72.83 29.14, 73.15 39.79 M72.63 41.05 C56.09 40.59, 40.21 38.46, -0.73 38.16 M72.9 39.95 C50.48 40.86, 28.88 39.99, -0.97 39.93 M1.17 41.19 C1.12 25.38, -1.54 14.31, 1.05 -1.48 M0.29 40.1 C0.32 25.58, 0.76 11.32, -0.11 -0.43" stroke="#000000" stroke-width="1" fill="none"></path></g><g transform="translate(1569.236204715633 301.57494899204795) rotate(0 23 12.5)"><text x="0" y="18" font-family="Virgil, Segoe UI Emoji" font-size="20px" fill="#000000" text-anchor="start" style="white-space: pre;" direction="ltr">From</text></g><g transform="translate(1427.3315772335359 304.2891620454333) rotate(0 14.5 12.5)"><text x="0" y="18" font-family="Virgil, Segoe UI Emoji" font-size="20px" fill="#000000" text-anchor="start" style="white-space: pre;" direction="ltr">To</text></g><g stroke-linecap="round" transform="translate(2149.1409593543044 428.6700977143786) rotate(0 21.714263916015625 16.28570556640625)"><path d="M-0.65 -1.49 L45.16 -1.24 L43.75 32.36 L-0.02 32.69" stroke="none" stroke-width="0" fill="#fff"></path><path d="M0.26 -1.42 C16.29 1.03, 29.92 -0.03, 43.67 -0.43 M0.21 -0.57 C8.44 -1.12, 18.11 -1.16, 44.41 0.17 M43.51 -1.5 C42.34 10.39, 43.09 18.41, 43.35 33.35 M44.16 -0.72 C42.57 9.04, 43.66 19.36, 42.54 32.09 M44.87 31.56 C30.16 31.07, 15.99 32.44, 0.01 32.97 M43.77 32.59 C33.14 33.41, 20.69 32.06, -0.63 33.34 M1.21 34.35 C-0.22 23.03, 1.07 10.46, -0.57 -0.92 M0.51 32.06 C-0.23 23.67, -0.86 15.81, -0.7 0.51" stroke="#000000" stroke-width="1" fill="none"></path></g><g transform="translate(2157.712339969539 434.81298101515983) rotate(0 15 10)"><text x="0" y="14" font-family="Virgil, Segoe UI Emoji" font-size="16px" fill="#000000" text-anchor="start" style="white-space: pre;" direction="ltr">Has</text></g><g stroke-linecap="round" transform="translate(1808.664885135554 449.6224750337146) rotate(0 21.714263916015625 16.28570556640625)"><path d="M-1.62 -0.64 L44.5 -0.04 L42.65 31.73 L-0.71 30.73" stroke="none" stroke-width="0" fill="#fff"></path><path d="M1.83 0.3 C17.38 -0.33, 33.27 0.83, 43.94 0.73 M-0.96 0.6 C11.23 -0.57, 24.05 0.47, 42.91 0.52 M42.1 0.27 C43.69 7.91, 44.33 17.11, 45.14 32.23 M44.11 0.25 C43.46 10.56, 43.75 21.64, 44.2 32.04 M43.53 31.24 C30.58 31.56, 19.53 33.64, 1.37 33.09 M42.97 33.52 C32.9 32.73, 22.83 32.79, -0.09 32.15 M-1.37 31.92 C-1.65 25.35, 1.93 18.8, -1.09 -0.26 M-0.67 31.61 C-1.06 24.06, -1.08 16.68, 0.82 -0.01" stroke="#000000" stroke-width="1" fill="none"></path></g><g transform="translate(1817.2362657507883 455.76535833449583) rotate(0 15 10)"><text x="0" y="14" font-family="Virgil, Segoe UI Emoji" font-size="16px" fill="#000000" text-anchor="start" style="white-space: pre;" direction="ltr">Has</text></g><g stroke-linecap="round" transform="translate(1662.4744961381582 433.43200974237345) rotate(0 21.714263916015625 16.28570556640625)"><path d="M-1.98 0.08 L42.44 -1.79 L42.35 33.04 L0.86 34.5" stroke="none" stroke-width="0" fill="#fff"></path><path d="M-1.99 -0.63 C17.8 -1.1, 32.36 1.23, 43.69 1.59 M-0.21 -0.8 C10.92 -0.04, 21.82 -0.19, 44.36 -0.43 M44.24 0.61 C41.72 6.51, 44.71 14.52, 42.23 31.8 M44.26 -0.67 C43.37 9.87, 43.53 18.6, 42.59 33.5 M44.2 30.81 C26.82 31.58, 10.12 34.27, 1.94 34.39 M42.57 31.71 C27.91 32.67, 10.42 32.55, 0.37 32.03 M-1.05 32.52 C-1.41 20.74, 1.26 11.35, 0.75 -0.41 M-0.37 31.92 C-0.44 21.02, -0.77 9.07, -0.38 0.17" stroke="#000000" stroke-width="1" fill="none"></path></g><g transform="translate(1671.0458767533926 439.5748930431547) rotate(0 15 10)"><text x="0" y="14" font-family="Virgil, Segoe UI Emoji" font-size="16px" fill="#000000" text-anchor="start" style="white-space: pre;" direction="ltr">Has</text></g><g stroke-linecap="round" transform="translate(1789.6108911199901 837.2744606987219) rotate(0 21.714263916015625 16.28570556640625)"><path d="M-0.64 0.78 L45.27 1.74 L43.91 30.84 L0.69 31.15" stroke="none" stroke-width="0" fill="#fff"></path><path d="M0.19 1.35 C17.32 1.77, 31.05 1.7, 43.94 -0.8 M0.16 0.19 C10.51 -0.33, 19.96 1.18, 43.95 -0.42 M43.88 0.45 C44.29 9.56, 42.57 17.37, 44.02 32.77 M44.38 0.22 C42.76 7.88, 42.46 15.55, 44.01 32.38 M41.81 33.49 C32.3 31.26, 24.21 34.84, -1.54 32.84 M42.59 33.01 C34.31 31.93, 23.96 31.68, -0.75 33.39 M-1.27 34.52 C-1.09 18.8, -1.76 8.84, -0.59 -1.97 M0.46 32.65 C1.04 22.21, -0.21 9.97, -0.49 -0.2" stroke="#000000" stroke-width="1" fill="none"></path></g><g transform="translate(1798.1822717352245 843.4173439995031) rotate(0 15 10)"><text x="0" y="14" font-family="Virgil, Segoe UI Emoji" font-size="16px" fill="#000000" text-anchor="start" style="white-space: pre;" direction="ltr">Has</text></g><g stroke-linecap="round" transform="translate(1044.3790981889392 464.14637538364946) rotate(0 21.714263916015625 16.28570556640625)"><path d="M0.53 1.21 L43.11 0.86 L42.64 31.78 L1.34 31.42" stroke="none" stroke-width="0" fill="#fff"></path><path d="M-1.26 1.01 C17.26 0.29, 34.19 -1.01, 45.29 1.4 M0.38 0.48 C13 -0.02, 25.7 0.59, 43.01 0.52 M44.31 -0.35 C44.28 8.4, 44.11 16.95, 41.44 31.83 M42.89 -0.33 C43.32 6.75, 42.69 15.54, 43.14 33.36 M43.82 32.13 C28.84 32.47, 12.05 33.66, -1.51 31.9 M43.79 33.27 C29.16 32.27, 16.01 33.72, -0.3 32.42 M1 31.86 C-1.19 19.47, -0.09 7.29, -0.01 -1.82 M0.89 32.3 C-0.3 20.6, 0.69 7.61, 0.97 0.02" stroke="#000000" stroke-width="1" fill="none"></path></g><g transform="translate(1052.9504788041736 470.2892586844307) rotate(0 15 10)"><text x="0" y="14" font-family="Virgil, Segoe UI Emoji" font-size="16px" fill="#000000" text-anchor="start" style="white-space: pre;" direction="ltr">Has</text></g><g stroke-linecap="round" transform="translate(943.1885057410225 494.6225004650296) rotate(0 21.714263916015625 16.28570556640625)"><path d="M1.88 1.75 L41.67 -0.01 L45.01 34.16 L-0.55 34.39" stroke="none" stroke-width="0" fill="#fff"></path><path d="M-0.57 1.58 C10.38 -0.92, 17.64 0.26, 42.98 0.94 M-0.76 -0.34 C13.37 0.24, 27.14 0.08, 44.13 -0.43 M42.83 -0.31 C45.12 9.64, 42.67 16.4, 42.71 31.7 M43.42 -0.91 C44.41 8.9, 43.1 18.09, 43.16 32.37 M45.37 32.61 C27.18 34.09, 9.54 33.75, -0.79 31.78 M43.82 31.57 C26.78 33.66, 10.69 33.57, 0.32 32.45 M-0.79 33.81 C0.53 23.01, 1.78 9.92, 0.81 0.02 M-0.77 32.54 C0.39 23.25, 0.12 13.2, -0.75 0.39" stroke="#000000" stroke-width="1" fill="none"></path></g><g transform="translate(948.9029324174548 502.6701384044827) rotate(0 15 10)"><text x="0" y="14" font-family="Virgil, Segoe UI Emoji" font-size="16px" fill="#000000" text-anchor="start" style="white-space: pre;" direction="ltr">Has</text></g><g stroke-linecap="round" transform="translate(893.9029222449287 442.24146815708696) rotate(0 21.714263916015625 16.28570556640625)"><path d="M1.84 0.51 L42.69 -0.61 L41.67 33.4 L-0.27 34.4" stroke="none" stroke-width="0" fill="#fff"></path><path d="M0.86 -1.43 C8.35 -0.27, 19 -0.41, 42.61 -0.71 M-0.07 -0.47 C15.27 -0.07, 29.43 -0.19, 43.57 -0.42 M41.72 1.15 C45.41 9.56, 44.27 18.87, 44.37 34.05 M42.67 -0.79 C42.96 9.41, 43.57 19.48, 42.58 31.77 M44.25 31.48 C26.82 32.21, 12.46 31.5, -1.65 32.54 M43.3 33.17 C34.58 32.73, 24.59 31.93, 0.77 31.66 M0.44 31.24 C-0.83 24.12, -0.74 12.12, 0.69 0.29 M0.66 31.87 C-0.96 25.17, -0.29 18.34, 0.79 -0.82" stroke="#000000" stroke-width="1" fill="none"></path></g><g transform="translate(902.4743028601631 448.3843514578682) rotate(0 15 10)"><text x="0" y="14" font-family="Virgil, Segoe UI Emoji" font-size="16px" fill="#000000" text-anchor="start" style="white-space: pre;" direction="ltr">Has</text></g><g stroke-linecap="round" transform="translate(723.9029731075591 479.62255132765995) rotate(0 21.714263916015625 16.28570556640625)"><path d="M1.29 -0.64 L44.41 0.7 L44.22 32.7 L-1.88 33.74" stroke="none" stroke-width="0" fill="#fff"></path><path d="M-0.16 -0.14 C12.7 -0.61, 19.88 0.2, 41.67 0.27 M0.36 0.42 C9.97 -0.64, 21.55 -1.17, 43.32 -0.12 M42.56 0.98 C42.73 8.6, 44.19 20.69, 41.53 33.67 M42.64 -0.73 C43.53 10.09, 44.44 21.11, 44.35 32.83 M44.26 32.31 C33.82 30.44, 21.19 32.96, 0.81 32.24 M42.84 31.65 C27.26 32.59, 12.05 31.95, -0.98 32.1 M1.08 34.47 C-0.87 22.28, 1.98 12.02, -0.29 -0.51 M-0.52 33.04 C-0.51 21.66, 0 12.08, 0.22 0.61" stroke="#000000" stroke-width="1" fill="none"></path></g><g transform="translate(732.4743537227935 485.7654346284412) rotate(0 15 10)"><text x="0" y="14" font-family="Virgil, Segoe UI Emoji" font-size="16px" fill="#000000" text-anchor="start" style="white-space: pre;" direction="ltr">Has</text></g><g stroke-linecap="round" transform="translate(639.6172878862051 487.0035836356026) rotate(0 21.714263916015625 16.28570556640625)"><path d="M1.78 0.25 L41.93 1.31 L44.5 31.86 L1.32 31.54" stroke="none" stroke-width="0" fill="#fff"></path><path d="M-0.15 0.55 C9.02 -1.82, 19.95 0.42, 43.22 -0.24 M-0.04 0.97 C15.32 0.05, 30.51 0.49, 44.02 0.42 M43.05 0.38 C45.49 8.52, 44.79 17.47, 42.79 33.56 M42.49 0.59 C44.31 10.93, 43.3 21.66, 43.23 33.48 M44.67 30.69 C28.34 32.46, 12.96 33.62, 1.1 33.19 M42.62 32.24 C27.75 32.67, 13.37 32.5, -0.38 32.12 M-1.83 31.84 C-0.39 23.82, -1.86 19.31, 0.98 1.6 M0.16 32.36 C0.23 22.21, -1.1 11.82, 0.21 0.88" stroke="#000000" stroke-width="1" fill="none"></path></g><g transform="translate(648.1886685014395 493.14646693638383) rotate(0 15 10)"><text x="0" y="14" font-family="Virgil, Segoe UI Emoji" font-size="16px" fill="#000000" text-anchor="start" style="white-space: pre;" direction="ltr">Has</text></g><g stroke-linecap="round" transform="translate(380.3315009395901 492.955833798363) rotate(0 21.714263916015625 16.28570556640625)"><path d="M0.16 -0.05 L43.61 0.67 L44.18 32.51 L0.03 32.54" stroke="none" stroke-width="0" fill="#fff"></path><path d="M-1.83 -0.73 C9.87 -1.43, 18.37 1.52, 44.41 1.6 M0.16 -0.21 C14.98 0.37, 28.12 0.83, 43.64 0.88 M44.74 1.07 C42.76 13.98, 42.43 26.67, 45.04 33.03 M42.96 -0.53 C44.33 11.71, 44.35 22.46, 42.78 33.51 M44.17 34.42 C29.3 32.31, 13.3 30.35, -0.03 31.16 M43.65 33.54 C33.54 32.67, 23.93 32.84, -0.92 31.69 M1.38 32.85 C1.7 22.18, -0.43 12.77, 1.03 -0.44 M-0.82 32.74 C-0.79 21.87, 0.83 13.02, -0.6 -0.97" stroke="#000000" stroke-width="1" fill="none"></path></g><g transform="translate(388.9028815548245 499.09871709914427) rotate(0 15 10)"><text x="0" y="14" font-family="Virgil, Segoe UI Emoji" font-size="16px" fill="#000000" text-anchor="start" style="white-space: pre;" direction="ltr">Has</text></g><g stroke-linecap="round" transform="translate(159.3790981889394 472.4795561290922) rotate(0 21.714263916015625 16.28570556640625)"><path d="M-0.82 0.89 L43.1 1.06 L42.13 34 L1.08 33.27" stroke="none" stroke-width="0" fill="#fff"></path><path d="M-1.78 -0.76 C10.53 -0.22, 24.62 1.48, 44.15 -1.08 M0.2 -0.48 C10.91 -0.25, 22.36 -0.48, 44.23 0.15 M42.88 0.96 C43.46 9.94, 43.35 15.08, 44.33 33.85 M43.26 0.57 C42.69 7.07, 43.45 14.37, 43.87 31.71 M44.29 30.96 C32.5 31.96, 20.64 33.28, 1.35 33.17 M43.76 32.74 C29.16 31.37, 15.31 31.5, -0.17 33.15 M1.47 31.33 C1.08 25.51, 0.39 16.01, -0.59 -1.24 M-0.96 32.06 C0.81 25.17, 0.82 15.4, 0.23 0.48" stroke="#000000" stroke-width="1" fill="none"></path></g><g transform="translate(167.95047880417377 478.62243942987345) rotate(0 15 10)"><text x="0" y="14" font-family="Virgil, Segoe UI Emoji" font-size="16px" fill="#000000" text-anchor="start" style="white-space: pre;" direction="ltr">Has</text></g><g stroke-linecap="round"><g transform="translate(568.1675857958678 903.4899449576343) rotate(0 -278.49641964243335 -268.9235736893931)"><path d="M-0.67 -0.53 C-80.45 -8.41, -385.58 1.45, -478.07 -48.15 C-570.56 -97.76, -558.55 -221.46, -555.61 -298.15 C-552.67 -374.83, -501.58 -468.48, -460.44 -508.28 C-419.3 -548.08, -333.94 -531.83, -308.76 -536.96 M1.17 1.81 C-78.29 -5.84, -382.92 2.95, -475.88 -46.92 C-568.84 -96.78, -559.17 -220.6, -556.6 -297.37 C-554.03 -374.14, -501.58 -467.16, -460.46 -507.55 C-419.34 -547.93, -335.3 -534.75, -309.86 -539.66" stroke="#000000" stroke-width="1" fill="none"></path></g><g transform="translate(568.1675857958678 903.4899449576343) rotate(0 -278.49641964243335 -268.9235736893931)"><path d="M-338.49 -529.91 C-328.75 -532.83, -319.8 -536.94, -311.03 -538.49 M-338.07 -529.15 C-327.6 -531.79, -315.64 -537.74, -309.77 -538.88" stroke="#000000" stroke-width="1" fill="none"></path></g><g transform="translate(568.1675857958678 903.4899449576343) rotate(0 -278.49641964243335 -268.9235736893931)"><path d="M-339.33 -550.42 C-329.45 -546.14, -320.2 -543.06, -311.03 -538.49 M-338.91 -549.65 C-328.08 -544.26, -315.8 -542.19, -309.77 -538.88" stroke="#000000" stroke-width="1" fill="none"></path></g></g><mask></mask><g stroke-linecap="round" transform="translate(475.1164640112617 889.221359406504) rotate(0 21.714263916015625 16.28570556640625)"><path d="M0.45 -0.79 L43.15 0.72 L42.56 32.63 L-0.07 32.74" stroke="none" stroke-width="0" fill="#fff"></path><path d="M1.35 -0.95 C18.28 -0.77, 35.11 -1.37, 44.65 0.02 M0.69 -0.13 C9.9 -0.57, 19.53 0.21, 42.48 0.72 M45.4 1.44 C45.04 10.87, 44.08 22.13, 44.53 31.11 M43.05 0.47 C44.12 6.79, 44.66 15.46, 44.11 32.78 M44.53 30.98 C28.99 33.88, 16.64 31.61, -1.91 34.39 M43.29 32.04 C32.7 32.15, 23.79 33.08, -0.35 32.18 M-0.59 34.03 C-1.6 20.23, 1.27 9.45, 0.54 0.64 M0.08 32.83 C0.44 21.11, 0.67 8.72, 0.87 -0.15" stroke="#000000" stroke-width="1" fill="none"></path></g><g transform="translate(483.12177005552604 894.7979685800622) rotate(0 15 10)"><text x="0" y="14" font-family="Virgil, Segoe UI Emoji" font-size="16px" fill="#000000" text-anchor="start" style="white-space: pre;" direction="ltr">Has</text></g><g stroke-linecap="round" transform="translate(77.31937860612095 659.0293207450738) rotate(0 42.19043986002603 16.76188151041663)"><path d="M1.07 -1.13 L84.98 1.71 L84.62 35.26 L-0.44 34.66" stroke="none" stroke-width="0" fill="#fff"></path><path d="M1.97 1.56 C30.01 -1.2, 59.98 -1.13, 83.95 0.15 M-0.32 0.81 C19.46 0.26, 37.84 -1.07, 84.94 0.65 M85.65 1.99 C84.71 10.56, 85 19.11, 83.77 31.98 M85.3 -0.06 C83.73 9.02, 85.05 15.86, 83.47 33.25 M84.67 32.11 C57.06 34.85, 28.69 31.84, -0.14 34.13 M83.73 34 C51.97 33.29, 19.01 32.8, -0.83 32.53 M1.78 33.62 C-0.38 26.47, -0.97 17.81, -1.47 1.5 M-0.66 33.48 C0.58 22.01, 0.56 7.68, 0.81 -0.87" stroke="#000000" stroke-width="1" fill="none"></path></g><g transform="translate(85.89075922135532 665.1722040458551) rotate(0 34 10)"><text x="0" y="14" font-family="Virgil, Segoe UI Emoji" font-size="16px" fill="#000000" text-anchor="start" style="white-space: pre;" direction="ltr">Contains</text></g><g stroke-linecap="round" transform="translate(400.958964195177 660.6134426581443) rotate(0 42.19043986002603 16.76188151041663)"><path d="M-0.43 1.4 L83.26 -0.73 L85.7 32.81 L-1.54 32.45" stroke="none" stroke-width="0" fill="#fff"></path><path d="M1.53 -0.13 C27.68 -2.35, 57.83 -0.66, 83.09 1.78 M-0.51 0.76 C25 0.09, 52.18 -1.14, 85.2 -0.66 M85.18 -1.85 C86.14 8.17, 85.59 18.68, 84.98 35.23 M84.95 0.3 C85.38 10.86, 85.39 20.89, 85.14 34.08 M86.29 33.54 C53.45 32.09, 20.52 35.69, 1.04 34.58 M84.58 32.82 C55.36 33.25, 25.07 32.86, -0.51 34.18 M0.99 34.9 C-0.94 22.8, 1.02 13.94, 1.98 -0.55 M0.07 34.32 C-0.82 19.92, 0.69 8.19, 0.45 0.91" stroke="#000000" stroke-width="1" fill="none"></path></g><g transform="translate(409.53034481041135 666.7563259589256) rotate(0 34 10)"><text x="0" y="14" font-family="Virgil, Segoe UI Emoji" font-size="16px" fill="#000000" text-anchor="start" style="white-space: pre;" direction="ltr">Contains</text></g><g stroke-linecap="round" transform="translate(1032.9233457835867 657.2118331072407) rotate(0 42.190439860026004 16.76188151041663)"><path d="M-1.31 -0.2 L86.34 0.12 L84.06 33.9 L1.32 33.47" stroke="none" stroke-width="0" fill="#fff"></path><path d="M-1.86 -1.13 C22.92 1.79, 45.28 0.85, 84.62 -0.82 M-0.38 -0.85 C24.38 -0.08, 51.18 -0.32, 83.84 0.65 M83.11 -0.83 C86.16 12.23, 85.59 23.85, 85.86 32.3 M83.87 0.19 C83.95 6.25, 84.5 14.03, 84.62 33.09 M84.29 34.6 C53.02 33.37, 22.43 34.29, -1.17 32.05 M84.41 33.04 C59.03 33.71, 36.15 33.07, 0.55 33.1 M-1.8 31.8 C-1.15 19.79, 0.45 6.62, -0.15 1.06 M-0.61 34.28 C-0.75 21.28, -0.29 10.83, 0.63 -0.52" stroke="#000000" stroke-width="1" fill="none"></path></g><g transform="translate(1041.494726398821 663.354716408022) rotate(0 34 10)"><text x="0" y="14" font-family="Virgil, Segoe UI Emoji" font-size="16px" fill="#000000" text-anchor="start" style="white-space: pre;" direction="ltr">Contains</text></g><g stroke-linecap="round" transform="translate(742.711757591069 661.7912904786056) rotate(0 42.19043986002606 16.76188151041663)"><path d="M1.91 -0.59 L83.63 -1.24 L85.29 34.87 L-1.85 32.48" stroke="none" stroke-width="0" fill="#fff"></path><path d="M-0.1 1.08 C32.54 0.37, 65.84 1.29, 83.22 -1.47 M0.03 -0.48 C23.7 -0.81, 49.86 -1.44, 84.93 -0.43 M82.59 -1.72 C82.73 12.07, 84.33 24.7, 84.23 34.59 M83.77 0.76 C83.16 10.45, 83.62 22.71, 85.01 33 M84.5 33.2 C64.98 35.67, 44.78 32.47, -0.77 31.58 M83.6 34.23 C60.94 34.03, 35.77 33.47, 0.08 33.38 M-0.19 32.29 C1.24 22.7, 0.98 11.81, -1.5 1.59 M0.25 33.69 C-0.23 25.04, 0.7 16.69, 0.56 0.91" stroke="#000000" stroke-width="1" fill="none"></path></g><g transform="translate(751.2831382063034 667.9341737793868) rotate(0 34 10)"><text x="0" y="14" font-family="Virgil, Segoe UI Emoji" font-size="16px" fill="#000000" text-anchor="start" style="white-space: pre;" direction="ltr">Contains</text></g><g stroke-linecap="round" transform="translate(580.7529978553848 964.2938261727824) rotate(0 42.19043986002606 16.76188151041663)"><path d="M0.97 1.33 L83.8 -1.48 L84.05 31.66 L1.55 31.61" stroke="none" stroke-width="0" fill="#fff"></path><path d="M1.14 0.5 C32.35 -0.52, 63.29 1.36, 83.17 1.12 M-0.38 -0.62 C33.47 0.92, 65.12 -0.27, 83.7 -0.13 M84.09 -1.92 C84.05 13.6, 82.73 25.62, 83.09 32.28 M84.66 -0.25 C84.67 7.79, 84 14.32, 83.69 34.15 M83.27 32.65 C60.02 32.2, 33.52 33.96, 1.1 33.97 M84.24 34.15 C60.48 34.09, 36.14 34.05, 0.98 33.12 M-1.89 33.29 C-0.7 23.78, 1.37 14.39, -1.83 1.51 M-0.38 34.37 C-0.84 20.32, 0.04 7.82, 0.79 -0.32" stroke="#000000" stroke-width="1" fill="none"></path></g><g transform="translate(595.8007880740213 972.2869957500086) rotate(0 28 10)"><text x="0" y="14" font-family="Virgil, Segoe UI Emoji" font-size="16px" fill="#000000" text-anchor="start" style="white-space: pre;" direction="ltr">Follows</text></g><g stroke-linecap="round" transform="translate(1917.474241825007 927.57475062779) rotate(0 42.190439860026004 16.76188151041663)"><path d="M0.09 1.98 L86.07 -0.09 L85.49 33.3 L-1.78 34.07" stroke="none" stroke-width="0" fill="#fff"></path><path d="M-0.44 0.94 C27.45 0.39, 56.86 1.26, 86.14 1.42 M0.86 -0.66 C26.13 -0.58, 52.15 -0.24, 84.04 0.75 M82.83 0.17 C83.42 9.04, 83.14 20.79, 84.02 34.71 M84.4 0.46 C84.32 10.5, 84.86 18.99, 84.98 34.09 M85.54 33.54 C55.44 32.87, 30.89 33.73, 0.43 33.92 M84.62 34.29 C64.99 34.39, 47.37 34.01, -0.43 34.1 M-1.44 35.44 C-0.81 21.99, -1.7 11.56, -0.05 -1.51 M0.77 33.52 C0 23.2, -1.09 14.46, -0.56 0.69" stroke="#000000" stroke-width="1" fill="none"></path></g><g transform="translate(1926.0456224402415 933.7176339285712) rotate(0 28 10)"><text x="0" y="14" font-family="Virgil, Segoe UI Emoji" font-size="16px" fill="#000000" text-anchor="start" style="white-space: pre;" direction="ltr">Follows</text></g><g stroke-linecap="round" transform="translate(1406.7421664660276 663.9771519442054) rotate(0 42.190439860026004 16.76188151041663)"><path d="M1.95 0.01 L82.82 1.41 L85.15 33.35 L-1.93 32.54" stroke="none" stroke-width="0" fill="#fff"></path><path d="M-1.92 1.85 C24.13 1.67, 50.59 2.26, 86.07 -0.09 M0.27 -0.9 C29.81 1.02, 59.45 1.73, 84.79 0.64 M83.93 0.94 C83.58 7.09, 83.18 14.81, 84.44 34.1 M83.39 -0.47 C84.14 12.65, 84.11 26.51, 83.67 32.77 M82.49 32.93 C52.01 34.19, 18.85 33.11, -1.81 33.22 M84.56 33.11 C62.51 33.63, 39.72 33.87, 0.32 33.6 M0.65 32.35 C-0.41 24.25, 1.7 19.53, -1.5 -0.12 M0.4 33.95 C-0.72 20.22, -0.02 7.98, -0.49 -0.66" stroke="#000000" stroke-width="1" fill="none"></path></g><g transform="translate(1415.313547081262 670.1200352449866) rotate(0 34 10)"><text x="0" y="14" font-family="Virgil, Segoe UI Emoji" font-size="16px" fill="#000000" text-anchor="start" style="white-space: pre;" direction="ltr">Contains</text></g><g stroke-linecap="round" transform="translate(1722.429942557409 659.3798609135685) rotate(0 42.190439860026004 16.76188151041663)"><path d="M-1.03 -0.58 L85.57 -0.82 L83.9 35.14 L0.58 33.61" stroke="none" stroke-width="0" fill="#fff"></path><path d="M-0.12 1.68 C33.7 -0.75, 66.68 1.48, 83.2 -0.87 M-0.66 0.98 C26.24 -0.37, 53.18 0.79, 84.29 -0.97 M85.26 0.71 C84.05 7.83, 86.28 16.06, 82.38 33.74 M83.99 0.87 C84.27 13.11, 85.16 26.42, 83.55 34.45 M83.69 31.92 C59.87 35.57, 35.36 35.49, 1.3 32.48 M84.87 34.28 C57.95 34.63, 32.86 33.16, -0.74 32.96 M-1.71 33.96 C1.15 22.58, -2.03 10.26, 1.11 -0.24 M0.28 33.34 C0.2 21.47, 0.28 8.8, -0.56 0.06" stroke="#000000" stroke-width="1" fill="none"></path></g><g transform="translate(1731.0013231726434 665.5227442143497) rotate(0 34 10)"><text x="0" y="14" font-family="Virgil, Segoe UI Emoji" font-size="16px" fill="#000000" text-anchor="start" style="white-space: pre;" direction="ltr">Contains</text></g><g stroke-linecap="round" transform="translate(2069.3467717631797 654.8745433439586) rotate(0 42.190439860026004 16.76188151041663)"><path d="M0.57 0.3 L82.72 -1.16 L85.68 33.49 L-0.47 33.44" stroke="none" stroke-width="0" fill="#fff"></path><path d="M-1.82 1.6 C28.28 -0.87, 55.44 -0.59, 84.2 0.56 M0.28 -0.88 C23.19 0.17, 46.99 -0.18, 84.97 -0.41 M84.47 0.48 C85.89 9.09, 85.65 19.15, 83.05 34.78 M84.73 -0.88 C84.8 11.95, 85.37 23.4, 83.5 33.14 M85.51 32.05 C56.84 33.94, 28.46 34.54, 0.85 33.87 M85.3 34.09 C63.63 34.14, 43.02 32.8, 0.84 33.16 M1.51 34.86 C-1.07 23.21, -0.52 10.99, -1.5 -1.57 M0.83 34.38 C0.74 25.98, 0.35 17.94, 0.67 0.73" stroke="#000000" stroke-width="1" fill="none"></path></g><g transform="translate(2077.918152378414 661.0174266447399) rotate(0 33.999999999999886 10)"><text x="0" y="14" font-family="Virgil, Segoe UI Emoji" font-size="16px" fill="#000000" text-anchor="start" style="white-space: pre;" direction="ltr">Contains</text></g><g stroke-linecap="round" transform="translate(2358.2863876485962 652.6669017423957) rotate(0 42.19043986002612 16.76188151041663)"><path d="M0.63 -0.7 L85.57 1.89 L83.86 31.56 L0.12 33.03" stroke="none" stroke-width="0" fill="#fff"></path><path d="M1.33 -1.24 C21.57 -1.32, 41.24 -2.14, 82.81 -1.53 M0.86 0.62 C22.2 -0.47, 43.9 -0.03, 85.11 0.29 M85.68 -0.03 C83.63 10.47, 85.54 21.5, 83.12 32.07 M84.65 0.44 C83.63 11.9, 85.08 25.34, 84.81 32.9 M85.32 32 C50.63 34.63, 17.14 34.98, 0.44 32.85 M84.22 32.97 C52.37 33.62, 19.36 33.38, -0.39 32.72 M-1.76 31.95 C2.1 25.53, 1.63 14.36, 1.96 0.01 M0.15 33.77 C0.31 20.67, -0.18 9.55, 0.32 -0.1" stroke="#000000" stroke-width="1" fill="none"></path></g><g transform="translate(2366.857768263831 658.8097850431769) rotate(0 34 10)"><text x="0" y="14" font-family="Virgil, Segoe UI Emoji" font-size="16px" fill="#000000" text-anchor="start" style="white-space: pre;" direction="ltr">Contains</text></g><g stroke-linecap="round" transform="translate(1003.6203033135675 185.00005086263027) rotate(0 42.28578186035156 37.142822265625)"><path d="M40.74 -0.9 C47.98 -1.6, 58.64 1.59, 65.23 5.27 C71.82 8.96, 77.09 15.17, 80.29 21.22 C83.49 27.27, 85.49 35.05, 84.41 41.58 C83.33 48.11, 78.73 55.05, 73.8 60.38 C68.87 65.72, 62.12 71.57, 54.83 73.59 C47.53 75.61, 37.47 74.53, 30.02 72.49 C22.58 70.46, 15.03 66.29, 10.17 61.36 C5.32 56.44, 2.15 49.53, 0.9 42.93 C-0.35 36.33, -0.31 27.95, 2.68 21.75 C5.67 15.55, 12.06 9.27, 18.84 5.75 C25.61 2.23, 39.13 1.45, 43.32 0.64 C47.52 -0.18, 44.14 0.28, 44 0.87 M62.14 2.93 C69.26 5.58, 76.23 13.63, 80.19 19.85 C84.15 26.08, 86.7 33.65, 85.91 40.28 C85.13 46.92, 80.33 54.5, 75.49 59.64 C70.64 64.78, 63.91 68.78, 56.86 71.12 C49.81 73.47, 40.4 75.05, 33.18 73.7 C25.96 72.35, 18.93 67.54, 13.56 63.02 C8.18 58.5, 2.75 53.19, 0.92 46.57 C-0.91 39.95, 0.03 29.59, 2.57 23.29 C5.12 17, 10 12.88, 16.19 8.79 C22.38 4.7, 31.92 -0.34, 39.69 -1.26 C47.46 -2.18, 59.17 2.42, 62.82 3.27 C66.47 4.11, 62.08 3.28, 61.59 3.8" stroke="#2b8a3e" stroke-width="1" fill="none"></path></g><g transform="translate(1102.0895328755091 188.67353893461686) rotate(0 56.50000000000006 12.5)"><text x="0" y="18" font-family="Virgil, Segoe UI Emoji" font-size="20px" fill="#364fc7" text-anchor="start" style="white-space: pre;" direction="ltr">:TimeTicket</text></g><g transform="translate(1102.6610660786341 213.2448890322731) rotate(0 77.00000000000006 30.5)"><text x="0" y="14.333333333333332" font-family="Virgil, Segoe UI Emoji" font-size="16px" fill="#2b8a3e" text-anchor="start" style="white-space: pre;" direction="ltr">id : 2</text><text x="0" y="34.666666666666664" font-family="Virgil, Segoe UI Emoji" font-size="16px" fill="#2b8a3e" text-anchor="start" style="white-space: pre;" direction="ltr">validFrom : 1.1.2002</text><text x="0" y="55" font-family="Virgil, Segoe UI Emoji" font-size="16px" fill="#2b8a3e" text-anchor="start" style="white-space: pre;" direction="ltr">validTo : 1.1.2003</text></g><g stroke-linecap="round" transform="translate(1003.7396473890885 10) rotate(0 42.28578186035156 37.142822265625)"><path d="M58.45 1.98 C65.37 3.97, 72.37 11.2, 76.6 16.66 C80.83 22.13, 83.52 28.15, 83.83 34.79 C84.13 41.43, 82.12 50.65, 78.43 56.51 C74.75 62.37, 68.55 67.08, 61.73 69.93 C54.9 72.78, 45.23 74.35, 37.48 73.62 C29.72 72.88, 21.14 69.48, 15.21 65.52 C9.27 61.55, 4.29 56.14, 1.86 49.82 C-0.57 43.51, -1.33 34.32, 0.61 27.64 C2.55 20.96, 7.87 14.37, 13.5 9.75 C19.12 5.14, 26.73 1.22, 34.36 -0.05 C41.99 -1.31, 54.82 1.27, 59.27 2.16 C63.72 3.05, 61.25 4.57, 61.07 5.29 M53.21 0.58 C60.19 1.43, 67.16 6.64, 72.14 11.47 C77.12 16.3, 81.76 23.19, 83.07 29.56 C84.39 35.93, 82.64 43.31, 80.04 49.68 C77.44 56.05, 73.45 63.71, 67.46 67.8 C61.48 71.89, 51.98 74.06, 44.14 74.23 C36.3 74.39, 27.25 71.9, 20.44 68.79 C13.63 65.68, 6.61 61.21, 3.26 55.57 C-0.08 49.93, -0.57 41.86, 0.39 34.95 C1.34 28.03, 4.4 19.84, 9.02 14.11 C13.63 8.38, 20.86 2.88, 28.06 0.55 C35.26 -1.78, 48.42 -0.05, 52.21 0.13 C56 0.31, 51.18 0.64, 50.8 1.64" stroke="#2b8a3e" stroke-width="1" fill="none"></path></g><g transform="translate(1102.20887695103 13.673488071986583) rotate(0 52.5 12.5)"><text x="0" y="18" font-family="Virgil, Segoe UI Emoji" font-size="20px" fill="#364fc7" text-anchor="start" style="white-space: pre;" direction="ltr">:Passenger</text></g><g transform="translate(1102.780410154155 38.24483816964283) rotate(0 64 20.5)"><text x="0" y="13.5" font-family="Virgil, Segoe UI Emoji" font-size="16px" fill="#2b8a3e" text-anchor="start" style="white-space: pre;" direction="ltr">name : Adam</text><text x="0" y="34" font-family="Virgil, Segoe UI Emoji" font-size="16px" fill="#2b8a3e" text-anchor="start" style="white-space: pre;" direction="ltr">surname : Novák</text></g><g stroke-linecap="round" transform="translate(1393.430239837005 20.313031877790138) rotate(0 42.28578186035156 37.142822265625)"><path d="M49.9 0.91 C56.99 1.69, 66.31 5.7, 71.76 10.26 C77.2 14.82, 80.78 21.83, 82.55 28.28 C84.33 34.74, 84.68 42.68, 82.41 48.96 C80.13 55.25, 75.06 61.83, 68.88 66 C62.7 70.18, 52.98 73.31, 45.32 74 C37.66 74.69, 29.65 73.14, 22.92 70.15 C16.2 67.17, 8.8 61.87, 4.95 56.09 C1.11 50.31, -0.66 42.23, -0.15 35.48 C0.37 28.72, 3.55 20.94, 8.02 15.55 C12.49 10.16, 18.69 5.26, 26.67 3.13 C34.66 1, 50.33 2.69, 55.94 2.75 C61.54 2.81, 60.59 3.03, 60.31 3.5 M37.83 0.26 C45.36 -0.65, 55.96 2.35, 63.07 5.26 C70.18 8.18, 76.91 11.89, 80.49 17.74 C84.07 23.58, 85.46 33.28, 84.55 40.34 C83.64 47.39, 79.52 54.78, 75.04 60.07 C70.55 65.36, 64.69 69.62, 57.62 72.07 C50.54 74.52, 39.86 76.3, 32.6 74.78 C25.34 73.26, 19.15 67.9, 14.05 62.93 C8.95 57.96, 4.12 51.33, 1.99 44.94 C-0.14 38.56, -1.06 30.85, 1.27 24.62 C3.59 18.38, 9.91 11.7, 15.95 7.53 C22 3.35, 33.59 0.65, 37.53 -0.41 C41.47 -1.48, 39.45 0.57, 39.59 1.13" stroke="#2b8a3e" stroke-width="1" fill="none"></path></g><g transform="translate(1491.8994693989466 23.986519949776664) rotate(0 52.5 12.5)"><text x="0" y="18" font-family="Virgil, Segoe UI Emoji" font-size="20px" fill="#364fc7" text-anchor="start" style="white-space: pre;" direction="ltr">:Passenger</text></g><g transform="translate(1492.4710026020716 48.55787004743297) rotate(0 72.5 20.5)"><text x="0" y="13.5" font-family="Virgil, Segoe UI Emoji" font-size="16px" fill="#2b8a3e" text-anchor="start" style="white-space: pre;" direction="ltr">name : Alice</text><text x="0" y="34" font-family="Virgil, Segoe UI Emoji" font-size="16px" fill="#2b8a3e" text-anchor="start" style="white-space: pre;" direction="ltr">surname : Novotná</text></g><g stroke-linecap="round"><g transform="translate(1046.6858366552901 85.28120495580657) rotate(0 -0.504304319016228 49.39731089622963)"><path d="M-0.91 -0.23 C-0.99 16.33, -0.92 82.02, -1.17 98.68 M0.81 -1.39 C0.69 15.42, -1.1 83.64, -1.82 100.19" stroke="#000000" stroke-width="1" fill="none"></path></g><g transform="translate(1046.6858366552901 85.28120495580657) rotate(0 -0.504304319016228 49.39731089622963)"><path d="M-11.52 72.63 C-9.15 77.47, -5.16 86.47, -3.41 100.65 M-12.1 72.22 C-8.36 80.16, -5.55 89.74, -2.54 99.53" stroke="#000000" stroke-width="1" fill="none"></path></g><g transform="translate(1046.6858366552901 85.28120495580657) rotate(0 -0.504304319016228 49.39731089622963)"><path d="M8.99 73.31 C6.45 77.83, 5.54 86.67, -3.41 100.65 M8.41 72.9 C5.84 80.67, 2.34 90.04, -2.54 99.53" stroke="#000000" stroke-width="1" fill="none"></path></g></g><mask></mask><g stroke-linecap="round"><g transform="translate(1436.9464094798223 96.24462835335962) rotate(0 -0.3952951781857337 44.885778505356)"><path d="M-0.4 0.27 C-0.81 15.41, -2.12 75.47, -2.38 90.41 M1.59 -0.64 C1.53 14.22, 0.53 74.08, -0.25 88.82" stroke="#000000" stroke-width="1" fill="none"></path></g><g transform="translate(1436.9464094798223 96.24462835335962) rotate(0 -0.3952951781857337 44.885778505356)"><path d="M-9.16 58.47 C-5.17 67.89, -3.19 76.72, -1.11 87.23 M-9.18 59.37 C-5.57 71.3, -3.26 82.36, -0.98 89.69" stroke="#000000" stroke-width="1" fill="none"></path></g><g transform="translate(1436.9464094798223 96.24462835335962) rotate(0 -0.3952951781857337 44.885778505356)"><path d="M11.35 59.13 C9.09 68.27, 4.83 76.91, -1.11 87.23 M11.33 60.02 C7.23 71.55, 1.82 82.36, -0.98 89.69" stroke="#000000" stroke-width="1" fill="none"></path></g></g><mask></mask><g stroke-linecap="round" transform="translate(1017.566806103597 107.31996284445279) rotate(0 28.415677631424273 12.939133123079785)"><path d="M0.6 -0.25 L55.78 1.06 L55.45 27 L-0.46 24.56" stroke="none" stroke-width="0" fill="#fff"></path><path d="M0.58 0.73 C15.5 1.9, 33.8 1.06, 56.48 -1.94 M-0.97 0.4 C16.27 -0.21, 32.84 0.32, 56.54 0.32 M57.4 1.7 C58.47 5.04, 57.63 15.63, 58.68 25.66 M56.81 -0.95 C55.93 8.57, 56.5 15.28, 56.95 25.02 M55.27 25.37 C46.23 24.16, 34.6 23.76, -0.5 25.79 M57.16 26.87 C39.47 25.74, 23.79 26.99, 0.13 25.56 M0.35 26.61 C0.53 15.83, 1.56 10.52, 1.4 0.36 M0.01 26.15 C0.18 16.83, 0.38 7.9, 0.93 -0.99" stroke="#000000" stroke-width="1" fill="none"></path></g><g transform="translate(1022.241776295202 108.03397703762579) rotate(0 24.5 12.5)"><text x="0" y="18" font-family="Virgil, Segoe UI Emoji" font-size="20px" fill="#000000" text-anchor="start" style="white-space: pre;" direction="ltr">Owns</text></g><g stroke-linecap="round" transform="translate(1407.4968653782166 113.06050311705715) rotate(0 28.415677631424273 12.939133123079785)"><path d="M0.93 0.06 L55.58 -0.82 L56.76 27.14 L1.82 26.17" stroke="none" stroke-width="0" fill="#fff"></path><path d="M1.76 -1.88 C12.42 1.35, 24.09 -1, 56.26 -1.35 M-0.5 0.47 C11.38 -0.83, 22.62 -0.05, 56.22 0.06 M55.47 0.29 C58.97 7.99, 58.23 17.67, 55.18 25.25 M57.16 -0.79 C56.28 4.87, 56.89 11.88, 56.52 26.27 M57.85 25.77 C36.09 27.22, 12.41 25.52, -0.7 26.66 M57.07 25.2 C44.26 25.84, 31.25 25.71, -0.73 25.81 M-0.29 25.28 C-0.25 18.95, -1.2 13.69, -0.56 0.56 M0.43 25.56 C0.25 21.09, 0.48 15.23, 0.85 0.04" stroke="#000000" stroke-width="1" fill="none"></path></g><g transform="translate(1412.1718355698217 113.77451731023015) rotate(0 24.5 12.5)"><text x="0" y="18" font-family="Virgil, Segoe UI Emoji" font-size="20px" fill="#000000" text-anchor="start" style="white-space: pre;" direction="ltr">Owns</text></g></svg>